<svg width="446" height="194" viewBox="0 0 446 194" fill="none" xmlns="http://www.w3.org/2000/svg">
<g clip-path="url(#clip0_20_2)">
<path d="M2.15909 32.5455V19.8182H52.7273V32.5455H35.2273V78H19.6591V32.5455H2.15909ZM112.301 48.9091C112.301 55.3864 111.042 60.8504 108.523 65.3011C106.004 69.733 102.604 73.0947 98.3239 75.3864C94.0436 77.6591 89.2708 78.7955 84.0057 78.7955C78.7027 78.7955 73.911 77.6496 69.6307 75.358C65.3693 73.0473 61.9792 69.6761 59.4602 65.2443C56.9602 60.7936 55.7102 55.3485 55.7102 48.9091C55.7102 42.4318 56.9602 36.9773 59.4602 32.5455C61.9792 28.0947 65.3693 24.733 69.6307 22.4602C73.911 20.1686 78.7027 19.0227 84.0057 19.0227C89.2708 19.0227 94.0436 20.1686 98.3239 22.4602C102.604 24.733 106.004 28.0947 108.523 32.5455C111.042 36.9773 112.301 42.4318 112.301 48.9091ZM96.0511 48.9091C96.0511 45.4242 95.5871 42.4886 94.6591 40.1023C93.75 37.697 92.3958 35.8788 90.5966 34.6477C88.8163 33.3977 86.6193 32.7727 84.0057 32.7727C81.392 32.7727 79.1856 33.3977 77.3864 34.6477C75.6061 35.8788 74.2519 37.697 73.3239 40.1023C72.4148 42.4886 71.9602 45.4242 71.9602 48.9091C71.9602 52.3939 72.4148 55.339 73.3239 57.7443C74.2519 60.1307 75.6061 61.9489 77.3864 63.1989C79.1856 64.4299 81.392 65.0455 84.0057 65.0455C86.6193 65.0455 88.8163 64.4299 90.5966 63.1989C92.3958 61.9489 93.75 60.1307 94.6591 57.7443C95.5871 55.339 96.0511 52.3939 96.0511 48.9091ZM154.041 19.8182H169.837V57.0909C169.837 61.5227 168.776 65.358 166.655 68.5966C164.553 71.8163 161.617 74.3068 157.848 76.0682C154.079 77.8106 149.704 78.6818 144.723 78.6818C139.704 78.6818 135.31 77.8106 131.541 76.0682C127.772 74.3068 124.837 71.8163 122.734 68.5966C120.651 65.358 119.609 61.5227 119.609 57.0909V19.8182H135.405V55.7273C135.405 57.5265 135.803 59.1364 136.598 60.5568C137.393 61.9583 138.492 63.0568 139.893 63.8523C141.314 64.6477 142.924 65.0455 144.723 65.0455C146.541 65.0455 148.151 64.6477 149.553 63.8523C150.954 63.0568 152.053 61.9583 152.848 60.5568C153.643 59.1364 154.041 57.5265 154.041 55.7273V19.8182ZM177.344 78V19.8182H202.457C206.776 19.8182 210.554 20.6042 213.793 22.1761C217.031 23.7481 219.55 26.0114 221.349 28.9659C223.149 31.9205 224.048 35.4621 224.048 39.5909C224.048 43.7576 223.12 47.2708 221.264 50.1307C219.427 52.9905 216.842 55.1496 213.509 56.608C210.194 58.0663 206.321 58.7955 201.889 58.7955H186.889V46.5227H198.707C200.563 46.5227 202.145 46.2955 203.452 45.8409C204.777 45.3674 205.791 44.6193 206.491 43.5966C207.211 42.5739 207.571 41.2386 207.571 39.5909C207.571 37.9242 207.211 36.5701 206.491 35.5284C205.791 34.4678 204.777 33.6913 203.452 33.1989C202.145 32.6875 200.563 32.4318 198.707 32.4318H193.139V78H177.344ZM211.435 51.2955L225.98 78H208.821L194.616 51.2955H211.435ZM281.122 19.8182V78H267.94L246.918 47.4318H246.577V78H230.781V19.8182H244.19L264.872 50.2727H265.327V19.8182H281.122ZM288.594 78V19.8182H330.526V32.5455H304.389V42.5455H328.366V55.2727H304.389V65.2727H330.412V78H288.594ZM372.791 19.8182H388.587V57.0909C388.587 61.5227 387.526 65.358 385.405 68.5966C383.303 71.8163 380.367 74.3068 376.598 76.0682C372.829 77.8106 368.454 78.6818 363.473 78.6818C358.454 78.6818 354.06 77.8106 350.291 76.0682C346.522 74.3068 343.587 71.8163 341.484 68.5966C339.401 65.358 338.359 61.5227 338.359 57.0909V19.8182H354.155V55.7273C354.155 57.5265 354.553 59.1364 355.348 60.5568C356.143 61.9583 357.242 63.0568 358.643 63.8523C360.064 64.6477 361.674 65.0455 363.473 65.0455C365.291 65.0455 366.901 64.6477 368.303 63.8523C369.704 63.0568 370.803 61.9583 371.598 60.5568C372.393 59.1364 372.791 57.5265 372.791 55.7273V19.8182ZM396.094 78V19.8182H421.207C425.526 19.8182 429.304 20.6042 432.543 22.1761C435.781 23.7481 438.3 26.0114 440.099 28.9659C441.899 31.9205 442.798 35.4621 442.798 39.5909C442.798 43.7576 441.87 47.2708 440.014 50.1307C438.177 52.9905 435.592 55.1496 432.259 56.608C428.944 58.0663 425.071 58.7955 420.639 58.7955H405.639V46.5227H417.457C419.313 46.5227 420.895 46.2955 422.202 45.8409C423.527 45.3674 424.541 44.6193 425.241 43.5966C425.961 42.5739 426.321 41.2386 426.321 39.5909C426.321 37.9242 425.961 36.5701 425.241 35.5284C424.541 34.4678 423.527 33.6913 422.202 33.1989C420.895 32.6875 419.313 32.4318 417.457 32.4318H411.889V78H396.094ZM430.185 51.2955L444.73 78H427.571L413.366 51.2955H430.185Z" fill="black"/>
<mask id="path-2-outside-1_20_2" maskUnits="userSpaceOnUse" x="122" y="112" width="325" height="67" fill="black">
<rect fill="white" x="122" y="112" width="325" height="67"/>
<path d="M144.864 175H127.818L147.023 116.818H168.614L187.818 175H170.773L158.045 132.841H157.591L144.864 175ZM141.682 152.045H173.727V163.864H141.682V152.045ZM185.098 116.818H202.712L214.075 140.455H214.53L225.893 116.818H243.507L222.143 156.705V175H206.462V156.705L185.098 116.818ZM248.656 116.818H268.315L281.838 149.773H282.52L296.043 116.818H315.702V175H300.247V141.364H299.793L286.838 174.545H277.52L264.565 141.136H264.111V175H248.656V116.818ZM323.188 175V116.818H365.119V129.545H338.983V139.545H362.96V152.273H338.983V162.273H365.006V175H323.188ZM372.953 175V116.818H398.067C402.385 116.818 406.163 117.604 409.402 119.176C412.641 120.748 415.16 123.011 416.959 125.966C418.758 128.92 419.658 132.462 419.658 136.591C419.658 140.758 418.73 144.271 416.874 147.131C415.036 149.991 412.451 152.15 409.118 153.608C405.804 155.066 401.93 155.795 397.499 155.795H382.499V143.523H394.317C396.173 143.523 397.754 143.295 399.061 142.841C400.387 142.367 401.4 141.619 402.101 140.597C402.821 139.574 403.18 138.239 403.18 136.591C403.18 134.924 402.821 133.57 402.101 132.528C401.4 131.468 400.387 130.691 399.061 130.199C397.754 129.687 396.173 129.432 394.317 129.432H388.749V175H372.953ZM407.044 148.295L421.589 175H404.43L390.226 148.295H407.044ZM442.186 116.818V175H426.391V116.818H442.186Z"/>
</mask>
<path d="M144.864 175V179H147.834L148.693 176.156L144.864 175ZM127.818 175L124.02 173.746L122.286 179H127.818V175ZM147.023 116.818V112.818H144.131L143.224 115.564L147.023 116.818ZM168.614 116.818L172.412 115.564L171.506 112.818H168.614V116.818ZM187.818 175V179H193.351L191.617 173.746L187.818 175ZM170.773 175L166.943 176.156L167.802 179H170.773V175ZM158.045 132.841L161.875 131.685L161.016 128.841H158.045V132.841ZM157.591 132.841V128.841H154.62L153.762 131.685L157.591 132.841ZM141.682 152.045V148.045H137.682V152.045H141.682ZM173.727 152.045H177.727V148.045H173.727V152.045ZM173.727 163.864V167.864H177.727V163.864H173.727ZM141.682 163.864H137.682V167.864H141.682V163.864ZM144.864 171H127.818V179H144.864V171ZM131.617 176.254L150.821 118.072L143.224 115.564L124.02 173.746L131.617 176.254ZM147.023 120.818H168.614V112.818H147.023V120.818ZM164.815 118.072L184.02 176.254L191.617 173.746L172.412 115.564L164.815 118.072ZM187.818 171H170.773V179H187.818V171ZM174.602 173.844L161.875 131.685L154.216 133.997L166.943 176.156L174.602 173.844ZM158.045 128.841H157.591V136.841H158.045V128.841ZM153.762 131.685L141.034 173.844L148.693 176.156L161.42 133.997L153.762 131.685ZM141.682 156.045H173.727V148.045H141.682V156.045ZM169.727 152.045V163.864H177.727V152.045H169.727ZM173.727 159.864H141.682V167.864H173.727V159.864ZM145.682 163.864V152.045H137.682V163.864H145.682ZM185.098 116.818V112.818H178.418L181.572 118.707L185.098 116.818ZM202.712 116.818L206.317 115.085L205.227 112.818H202.712V116.818ZM214.075 140.455L210.47 142.188L211.56 144.455H214.075V140.455ZM214.53 140.455V144.455H217.045L218.135 142.188L214.53 140.455ZM225.893 116.818V112.818H223.378L222.288 115.085L225.893 116.818ZM243.507 116.818L247.033 118.707L250.187 112.818H243.507V116.818ZM222.143 156.705L218.617 154.816L218.143 155.701V156.705H222.143ZM222.143 175V179H226.143V175H222.143ZM206.462 175H202.462V179H206.462V175ZM206.462 156.705H210.462V155.701L209.988 154.816L206.462 156.705ZM185.098 120.818H202.712V112.818H185.098V120.818ZM199.107 118.551L210.47 142.188L217.68 138.721L206.317 115.085L199.107 118.551ZM214.075 144.455H214.53V136.455H214.075V144.455ZM218.135 142.188L229.498 118.551L222.288 115.085L210.925 138.721L218.135 142.188ZM225.893 120.818H243.507V112.818H225.893V120.818ZM239.981 114.93L218.617 154.816L225.67 158.593L247.033 118.707L239.981 114.93ZM218.143 156.705V175H226.143V156.705H218.143ZM222.143 171H206.462V179H222.143V171ZM210.462 175V156.705H202.462V175H210.462ZM209.988 154.816L188.624 114.93L181.572 118.707L202.936 158.593L209.988 154.816ZM248.656 116.818V112.818H244.656V116.818H248.656ZM268.315 116.818L272.016 115.3L270.998 112.818H268.315V116.818ZM281.838 149.773L278.138 151.291L279.156 153.773H281.838V149.773ZM282.52 149.773V153.773H285.202L286.22 151.291L282.52 149.773ZM296.043 116.818V112.818H293.36L292.342 115.3L296.043 116.818ZM315.702 116.818H319.702V112.818H315.702V116.818ZM315.702 175V179H319.702V175H315.702ZM300.247 175H296.247V179H300.247V175ZM300.247 141.364H304.247V137.364H300.247V141.364ZM299.793 141.364V137.364H297.06L296.067 139.909L299.793 141.364ZM286.838 174.545V178.545H289.57L290.564 176L286.838 174.545ZM277.52 174.545L273.79 175.992L274.781 178.545H277.52V174.545ZM264.565 141.136L268.295 139.69L267.305 137.136H264.565V141.136ZM264.111 141.136V137.136H260.111V141.136H264.111ZM264.111 175V179H268.111V175H264.111ZM248.656 175H244.656V179H248.656V175ZM248.656 120.818H268.315V112.818H248.656V120.818ZM264.615 118.337L278.138 151.291L285.539 148.254L272.016 115.3L264.615 118.337ZM281.838 153.773H282.52V145.773H281.838V153.773ZM286.22 151.291L299.743 118.337L292.342 115.3L278.819 148.254L286.22 151.291ZM296.043 120.818H315.702V112.818H296.043V120.818ZM311.702 116.818V175H319.702V116.818H311.702ZM315.702 171H300.247V179H315.702V171ZM304.247 175V141.364H296.247V175H304.247ZM300.247 137.364H299.793V145.364H300.247V137.364ZM296.067 139.909L283.112 173.091L290.564 176L303.519 142.818L296.067 139.909ZM286.838 170.545H277.52V178.545H286.838V170.545ZM281.249 173.099L268.295 139.69L260.836 142.582L273.79 175.992L281.249 173.099ZM264.565 137.136H264.111V145.136H264.565V137.136ZM260.111 141.136V175H268.111V141.136H260.111ZM264.111 171H248.656V179H264.111V171ZM252.656 175V116.818H244.656V175H252.656ZM323.188 175H319.188V179H323.188V175ZM323.188 116.818V112.818H319.188V116.818H323.188ZM365.119 116.818H369.119V112.818H365.119V116.818ZM365.119 129.545V133.545H369.119V129.545H365.119ZM338.983 129.545V125.545H334.983V129.545H338.983ZM338.983 139.545H334.983V143.545H338.983V139.545ZM362.96 139.545H366.96V135.545H362.96V139.545ZM362.96 152.273V156.273H366.96V152.273H362.96ZM338.983 152.273V148.273H334.983V152.273H338.983ZM338.983 162.273H334.983V166.273H338.983V162.273ZM365.006 162.273H369.006V158.273H365.006V162.273ZM365.006 175V179H369.006V175H365.006ZM327.188 175V116.818H319.188V175H327.188ZM323.188 120.818H365.119V112.818H323.188V120.818ZM361.119 116.818V129.545H369.119V116.818H361.119ZM365.119 125.545H338.983V133.545H365.119V125.545ZM334.983 129.545V139.545H342.983V129.545H334.983ZM338.983 143.545H362.96V135.545H338.983V143.545ZM358.96 139.545V152.273H366.96V139.545H358.96ZM362.96 148.273H338.983V156.273H362.96V148.273ZM334.983 152.273V162.273H342.983V152.273H334.983ZM338.983 166.273H365.006V158.273H338.983V166.273ZM361.006 162.273V175H369.006V162.273H361.006ZM365.006 171H323.188V179H365.006V171ZM372.953 175H368.953V179H372.953V175ZM372.953 116.818V112.818H368.953V116.818H372.953ZM409.402 119.176L407.655 122.775L409.402 119.176ZM416.959 125.966L420.375 123.885L420.375 123.885L416.959 125.966ZM416.874 147.131L413.518 144.953L413.513 144.961L413.508 144.969L416.874 147.131ZM409.118 153.608L407.515 149.943L407.507 149.947L409.118 153.608ZM382.499 155.795H378.499V159.795H382.499V155.795ZM382.499 143.523V139.523H378.499V143.523H382.499ZM399.061 142.841L400.375 146.619L400.391 146.613L400.406 146.608L399.061 142.841ZM402.101 140.597L398.83 138.295L398.815 138.315L398.801 138.336L402.101 140.597ZM402.101 132.528L398.764 134.733L398.786 134.768L398.81 134.802L402.101 132.528ZM399.061 130.199L397.603 133.924L397.636 133.936L397.668 133.949L399.061 130.199ZM388.749 129.432V125.432H384.749V129.432H388.749ZM388.749 175V179H392.749V175H388.749ZM407.044 148.295L410.557 146.382L409.42 144.295H407.044V148.295ZM421.589 175V179H428.323L425.102 173.087L421.589 175ZM404.43 175L400.899 176.878L402.027 179H404.43V175ZM390.226 148.295V144.295H383.568L386.694 150.174L390.226 148.295ZM376.953 175V116.818H368.953V175H376.953ZM372.953 120.818H398.067V112.818H372.953V120.818ZM398.067 120.818C401.899 120.818 405.059 121.514 407.655 122.775L411.149 115.578C407.268 113.694 402.871 112.818 398.067 112.818V120.818ZM407.655 122.775C410.233 124.026 412.159 125.775 413.542 128.046L420.375 123.885C418.16 120.248 415.048 117.471 411.149 115.578L407.655 122.775ZM413.542 128.046C414.892 130.262 415.658 133.053 415.658 136.591H423.658C423.658 131.871 422.624 127.579 420.375 123.885L413.542 128.046ZM415.658 136.591C415.658 140.157 414.868 142.873 413.518 144.953L420.229 149.308C422.591 145.669 423.658 141.358 423.658 136.591H415.658ZM413.508 144.969C412.128 147.118 410.179 148.778 407.515 149.943L410.721 157.273C414.724 155.521 417.945 152.864 420.239 149.293L413.508 144.969ZM407.507 149.947C404.801 151.138 401.497 151.795 397.499 151.795V159.795C402.364 159.795 406.806 158.995 410.729 157.269L407.507 149.947ZM397.499 151.795H382.499V159.795H397.499V151.795ZM386.499 155.795V143.523H378.499V155.795H386.499ZM382.499 147.523H394.317V139.523H382.499V147.523ZM394.317 147.523C396.477 147.523 398.529 147.261 400.375 146.619L397.747 139.063C396.979 139.33 395.868 139.523 394.317 139.523V147.523ZM400.406 146.608C402.414 145.891 404.16 144.668 405.401 142.858L398.801 138.336C398.64 138.571 398.36 138.844 397.716 139.074L400.406 146.608ZM405.372 142.899C406.696 141.017 407.18 138.804 407.18 136.591H399.18C399.18 137.674 398.945 138.131 398.83 138.295L405.372 142.899ZM407.18 136.591C407.18 134.366 406.699 132.147 405.392 130.255L398.81 134.802C398.942 134.993 399.18 135.483 399.18 136.591H407.18ZM405.438 130.323C404.217 128.475 402.481 127.202 400.454 126.449L397.668 133.949C398.292 134.18 398.583 134.46 398.764 134.733L405.438 130.323ZM400.519 126.474C398.624 125.733 396.52 125.432 394.317 125.432V133.432C395.826 133.432 396.884 133.642 397.603 133.924L400.519 126.474ZM394.317 125.432H388.749V133.432H394.317V125.432ZM384.749 129.432V175H392.749V129.432H384.749ZM388.749 171H372.953V179H388.749V171ZM403.531 150.209L418.077 176.913L425.102 173.087L410.557 146.382L403.531 150.209ZM421.589 171H404.43V179H421.589V171ZM407.962 173.122L393.757 146.417L386.694 150.174L400.899 176.878L407.962 173.122ZM390.226 152.295H407.044V144.295H390.226V152.295ZM442.186 116.818H446.186V112.818H442.186V116.818ZM442.186 175V179H446.186V175H442.186ZM426.391 175H422.391V179H426.391V175ZM426.391 116.818V112.818H422.391V116.818H426.391ZM438.186 116.818V175H446.186V116.818H438.186ZM442.186 171H426.391V179H442.186V171ZM430.391 175V116.818H422.391V175H430.391ZM426.391 120.818H442.186V112.818H426.391V120.818Z" fill="black" mask="url(#path-2-outside-1_20_2)"/>
</g>
<defs>
<clipPath id="clip0_20_2">
<rect width="446" height="194" fill="white"/>
</clipPath>
</defs>
</svg>
