<svg width="1008" height="635" viewBox="0 0 1008 635" fill="none" xmlns="http://www.w3.org/2000/svg">
<g filter="url(#filter0_f_4_49)">
<ellipse cx="504.5" cy="586" rx="452.5" ry="5" fill="black"/>
</g>
<path d="M99 28C99 13.0883 111.088 1 126 1H886C900.912 1 913 13.0883 913 28V550C913 551.657 911.657 553 910 553H102C100.343 553 99 551.657 99 550V28Z" fill="#1A202C" stroke="#4A5568" stroke-width="2"/>
<path d="M103 27C103 14.8497 112.85 5 125 5H887C899.15 5 909 14.8497 909 27V533H103V27Z" fill="black"/>
<rect x="119" y="31" width="770" height="480" fill="white"/>
<path d="M472.114 545.143C471.665 545.143 471.26 545.063 470.9 544.903C470.543 544.74 470.26 544.5 470.05 544.183C469.844 543.866 469.741 543.475 469.741 543.01C469.741 542.61 469.815 542.279 469.963 542.018C470.11 541.756 470.312 541.547 470.567 541.39C470.823 541.233 471.111 541.114 471.431 541.034C471.754 540.951 472.088 540.891 472.433 540.854C472.848 540.811 473.185 540.773 473.444 540.739C473.702 540.702 473.89 540.647 474.007 540.573C474.127 540.496 474.187 540.377 474.187 540.217V540.19C474.187 539.842 474.084 539.573 473.877 539.382C473.671 539.191 473.374 539.096 472.987 539.096C472.577 539.096 472.252 539.185 472.012 539.363C471.775 539.542 471.615 539.753 471.532 539.996L469.972 539.774C470.095 539.343 470.298 538.983 470.581 538.694C470.864 538.402 471.211 538.183 471.62 538.038C472.029 537.891 472.482 537.817 472.977 537.817C473.319 537.817 473.659 537.857 473.998 537.937C474.336 538.017 474.645 538.149 474.925 538.334C475.205 538.515 475.43 538.763 475.599 539.077C475.772 539.391 475.858 539.783 475.858 540.254V545H474.251V544.026H474.196C474.094 544.223 473.951 544.408 473.767 544.58C473.585 544.749 473.356 544.886 473.079 544.991C472.805 545.092 472.483 545.143 472.114 545.143ZM472.548 543.915C472.883 543.915 473.174 543.849 473.42 543.717C473.667 543.581 473.856 543.403 473.988 543.181C474.124 542.96 474.191 542.718 474.191 542.456V541.621C474.139 541.664 474.05 541.704 473.924 541.741C473.801 541.778 473.662 541.81 473.508 541.838C473.354 541.865 473.202 541.89 473.051 541.912C472.9 541.933 472.77 541.952 472.659 541.967C472.409 542.001 472.186 542.056 471.989 542.133C471.792 542.21 471.637 542.318 471.523 542.456C471.409 542.592 471.352 542.767 471.352 542.983C471.352 543.29 471.465 543.523 471.689 543.68C471.914 543.837 472.2 543.915 472.548 543.915ZM478.323 547.659C478.095 547.659 477.885 547.641 477.691 547.604C477.5 547.57 477.348 547.53 477.234 547.484L477.621 546.182C477.865 546.253 478.082 546.286 478.272 546.283C478.463 546.28 478.631 546.22 478.776 546.103C478.923 545.989 479.048 545.799 479.15 545.531L479.293 545.148L476.721 537.909H478.494L480.128 543.264H480.202L481.841 537.909H483.618L480.779 545.859C480.647 546.234 480.471 546.556 480.253 546.824C480.034 547.094 479.767 547.301 479.45 547.442C479.136 547.587 478.76 547.659 478.323 547.659ZM484.775 545V537.909H486.372V539.114H486.455C486.603 538.708 486.847 538.391 487.189 538.163C487.531 537.932 487.939 537.817 488.412 537.817C488.893 537.817 489.297 537.934 489.627 538.168C489.959 538.398 490.193 538.714 490.328 539.114H490.402C490.559 538.72 490.824 538.406 491.196 538.172C491.572 537.935 492.016 537.817 492.53 537.817C493.183 537.817 493.715 538.023 494.128 538.435C494.54 538.848 494.746 539.449 494.746 540.24V545H493.07V540.499C493.07 540.059 492.954 539.737 492.72 539.534C492.486 539.328 492.2 539.225 491.861 539.225C491.458 539.225 491.142 539.351 490.915 539.603C490.69 539.853 490.578 540.177 490.578 540.577V545H488.939V540.43C488.939 540.063 488.828 539.771 488.606 539.553C488.388 539.334 488.102 539.225 487.748 539.225C487.508 539.225 487.289 539.286 487.092 539.409C486.895 539.529 486.738 539.7 486.621 539.922C486.504 540.14 486.446 540.396 486.446 540.688V545H484.775ZM499.581 545.138C498.87 545.138 498.256 544.991 497.739 544.695C497.225 544.397 496.829 543.975 496.552 543.43C496.275 542.883 496.137 542.238 496.137 541.496C496.137 540.767 496.275 540.127 496.552 539.576C496.833 539.022 497.223 538.591 497.725 538.283C498.227 537.972 498.816 537.817 499.493 537.817C499.93 537.817 500.343 537.888 500.73 538.029C501.121 538.168 501.466 538.383 501.764 538.675C502.066 538.968 502.303 539.34 502.475 539.793C502.648 540.242 502.734 540.777 502.734 541.399V541.912H496.922V540.785H501.132C501.129 540.465 501.06 540.18 500.924 539.931C500.789 539.679 500.6 539.48 500.356 539.336C500.116 539.191 499.836 539.119 499.516 539.119C499.175 539.119 498.875 539.202 498.616 539.368C498.358 539.531 498.156 539.746 498.011 540.014C497.87 540.279 497.797 540.57 497.794 540.887V541.87C497.794 542.282 497.87 542.636 498.021 542.932C498.171 543.224 498.382 543.449 498.653 543.606C498.924 543.76 499.241 543.837 499.604 543.837C499.847 543.837 500.067 543.803 500.264 543.735C500.461 543.664 500.632 543.561 500.777 543.426C500.921 543.29 501.03 543.123 501.104 542.923L502.665 543.098C502.566 543.51 502.378 543.871 502.101 544.178C501.828 544.483 501.477 544.72 501.049 544.889C500.621 545.055 500.132 545.138 499.581 545.138ZM504.148 545V537.909H505.768V539.091H505.842C505.971 538.682 506.193 538.366 506.507 538.145C506.824 537.92 507.185 537.808 507.592 537.808C507.684 537.808 507.787 537.812 507.901 537.821C508.018 537.828 508.115 537.838 508.192 537.854V539.391C508.121 539.366 508.009 539.345 507.855 539.326C507.704 539.305 507.558 539.294 507.416 539.294C507.112 539.294 506.838 539.36 506.594 539.493C506.354 539.622 506.165 539.802 506.027 540.033C505.888 540.263 505.819 540.53 505.819 540.831V545H504.148ZM509.302 545V537.909H510.973V545H509.302ZM510.142 536.903C509.878 536.903 509.65 536.815 509.459 536.64C509.268 536.461 509.173 536.247 509.173 535.998C509.173 535.746 509.268 535.532 509.459 535.356C509.65 535.178 509.878 535.088 510.142 535.088C510.41 535.088 510.638 535.178 510.825 535.356C511.016 535.532 511.112 535.746 511.112 535.998C511.112 536.247 511.016 536.461 510.825 536.64C510.638 536.815 510.41 536.903 510.142 536.903ZM513.721 545.102C513.441 545.102 513.201 545.003 513.001 544.806C512.801 544.609 512.702 544.369 512.706 544.086C512.702 543.809 512.801 543.572 513.001 543.375C513.201 543.178 513.441 543.08 513.721 543.08C513.992 543.08 514.227 543.178 514.427 543.375C514.631 543.572 514.734 543.809 514.737 544.086C514.734 544.274 514.684 544.444 514.589 544.598C514.497 544.752 514.374 544.875 514.22 544.968C514.069 545.057 513.903 545.102 513.721 545.102ZM519.094 545.125C518.537 545.125 518.038 544.982 517.598 544.695C517.158 544.409 516.81 543.994 516.555 543.449C516.299 542.904 516.171 542.242 516.171 541.464C516.171 540.676 516.301 540.011 516.559 539.469C516.821 538.925 517.173 538.514 517.616 538.237C518.059 537.957 518.553 537.817 519.098 537.817C519.514 537.817 519.855 537.888 520.123 538.029C520.391 538.168 520.603 538.335 520.76 538.532C520.917 538.726 521.039 538.909 521.125 539.082H521.194V535.545H522.87V545H521.226V543.883H521.125C521.039 544.055 520.914 544.238 520.751 544.432C520.588 544.623 520.372 544.786 520.105 544.922C519.837 545.057 519.5 545.125 519.094 545.125ZM519.56 543.754C519.914 543.754 520.215 543.658 520.465 543.467C520.714 543.273 520.903 543.004 521.032 542.659C521.162 542.315 521.226 541.913 521.226 541.455C521.226 540.996 521.162 540.597 521.032 540.259C520.906 539.92 520.719 539.657 520.469 539.469C520.223 539.282 519.92 539.188 519.56 539.188C519.187 539.188 518.877 539.285 518.627 539.479C518.378 539.673 518.19 539.94 518.064 540.282C517.938 540.624 517.875 541.014 517.875 541.455C517.875 541.898 517.938 542.293 518.064 542.641C518.193 542.986 518.383 543.258 518.632 543.458C518.884 543.655 519.194 543.754 519.56 543.754ZM527.79 545.138C527.079 545.138 526.465 544.991 525.948 544.695C525.434 544.397 525.038 543.975 524.761 543.43C524.484 542.883 524.346 542.238 524.346 541.496C524.346 540.767 524.484 540.127 524.761 539.576C525.042 539.022 525.432 538.591 525.934 538.283C526.436 537.972 527.025 537.817 527.702 537.817C528.139 537.817 528.552 537.888 528.939 538.029C529.33 538.168 529.675 538.383 529.973 538.675C530.275 538.968 530.512 539.34 530.684 539.793C530.857 540.242 530.943 540.777 530.943 541.399V541.912H525.131V540.785H529.341C529.338 540.465 529.269 540.18 529.133 539.931C528.998 539.679 528.809 539.48 528.565 539.336C528.325 539.191 528.045 539.119 527.725 539.119C527.384 539.119 527.084 539.202 526.825 539.368C526.566 539.531 526.365 539.746 526.22 540.014C526.079 540.279 526.006 540.57 526.003 540.887V541.87C526.003 542.282 526.079 542.636 526.229 542.932C526.38 543.224 526.591 543.449 526.862 543.606C527.133 543.76 527.45 543.837 527.813 543.837C528.056 543.837 528.276 543.803 528.473 543.735C528.67 543.664 528.841 543.561 528.986 543.426C529.13 543.29 529.239 543.123 529.313 542.923L530.874 543.098C530.775 543.51 530.587 543.871 530.31 544.178C530.037 544.483 529.686 544.72 529.258 544.889C528.83 545.055 528.341 545.138 527.79 545.138ZM538.487 537.909L535.962 545H534.116L531.59 537.909H533.372L535.002 543.176H535.076L536.71 537.909H538.487Z" fill="#A0AEC0"/>
<path d="M0 552C0 550.895 0.895431 550 2 550H1006C1007.1 550 1008 550.895 1008 552V568H0V552Z" fill="#A3ACB1"/>
<path d="M0 552C0 550.895 0.895431 550 2 550H1006C1007.1 550 1008 550.895 1008 552V568H0V552Z" fill="url(#paint0_linear_4_49)"/>
<path d="M0 568H1008L987.646 572.105C961.613 577.355 935.123 580 908.566 580H97.9089C68.724 580 39.6267 576.806 11.1367 570.475L0 568Z" fill="#647279"/>
<path d="M0 568H1008L987.646 572.105C961.613 577.355 935.123 580 908.566 580H97.9089C68.724 580 39.6267 576.806 11.1367 570.475L0 568Z" fill="url(#paint1_linear_4_49)"/>
<path fill-rule="evenodd" clip-rule="evenodd" d="M421.033 550C421.547 557.818 428.052 564 436 564H573C580.948 564 587.453 557.818 587.967 550H421.033Z" fill="#96A1A8"/>
<path fill-rule="evenodd" clip-rule="evenodd" d="M421.033 550C421.547 557.818 428.052 564 436 564H573C580.948 564 587.453 557.818 587.967 550H421.033Z" fill="url(#paint2_linear_4_49)"/>
<defs>
<filter id="filter0_f_4_49" x="8" y="537" width="993" height="98" filterUnits="userSpaceOnUse" color-interpolation-filters="sRGB">
<feFlood flood-opacity="0" result="BackgroundImageFix"/>
<feBlend mode="normal" in="SourceGraphic" in2="BackgroundImageFix" result="shape"/>
<feGaussianBlur stdDeviation="22" result="effect1_foregroundBlur_4_49"/>
</filter>
<linearGradient id="paint0_linear_4_49" x1="-1.94452e-10" y1="559" x2="1008" y2="559" gradientUnits="userSpaceOnUse">
<stop stop-color="#0D1012"/>
<stop offset="0.0295345" stop-color="#CAD4DB"/>
<stop offset="0.0625" stop-color="#242729"/>
<stop offset="0.133609" stop-color="#A3ACB1"/>
<stop offset="0.865967" stop-color="#A3ACB1"/>
<stop offset="0.941937" stop-color="#242729"/>
<stop offset="0.971275" stop-color="#CAD4DB"/>
<stop offset="0.996436" stop-color="#0D1012"/>
</linearGradient>
<linearGradient id="paint1_linear_4_49" x1="504" y1="568" x2="504" y2="580" gradientUnits="userSpaceOnUse">
<stop stop-color="#7A7F83"/>
<stop offset="1" stop-color="#0B0B0E"/>
</linearGradient>
<linearGradient id="paint2_linear_4_49" x1="437.5" y1="558.5" x2="574.5" y2="558.5" gradientUnits="userSpaceOnUse">
<stop stop-color="#3C3C3C"/>
<stop offset="0.317518" stop-color="#3C3C3C" stop-opacity="0"/>
<stop offset="0.660584" stop-color="#3C3C3C" stop-opacity="0"/>
<stop offset="1" stop-color="#444444"/>
</linearGradient>
</defs>
</svg>
