<svg width="256" height="256" viewBox="0 0 256 256" fill="none" xmlns="http://www.w3.org/2000/svg">
<path d="M29.5 170L9 161V160L50 69L190 69L231.5 161L210 170H29.5Z" fill="url(#paint0_linear_56_2)"/>
<path d="M50 70L10 160H40L50 140L60 160H90L50 70Z" fill="white" stroke="#231F20" stroke-width="2" stroke-miterlimit="1.49448" stroke-linejoin="round"/>
<path d="M110 70H150L110 160H90L80.5 139L100 110H67.8164L50 70H90L100 90L110 70Z" fill="white"/>
<path d="M150 70L150.914 70.4061L151.539 69H150V70ZM110 70V69H109.382L109.106 69.5528L110 70ZM100 90L99.1056 90.4472L100 92.2361L100.894 90.4472L100 90ZM90 70L90.8944 69.5528L90.618 69H90V70ZM50 70V69C49.6613 69 49.3457 69.1714 49.1613 69.4554C48.9769 69.7395 48.9487 70.0975 49.0865 70.4069L50 70ZM67.8164 110L66.9029 110.407L67.1671 111H67.8164V110ZM100 110L100.83 110.558L101.877 109H100V110ZM80.5 139L79.6702 138.442L79.3592 138.904L79.5889 139.412L80.5 139ZM90 160L89.0889 160.412L89.3548 161H90V160ZM110 160V161H110.65L110.914 160.406L110 160ZM150 69H110V71H150V69ZM109.106 69.5528L99.1056 89.5528L100.894 90.4472L110.894 70.4472L109.106 69.5528ZM100.894 89.5528L90.8944 69.5528L89.1056 70.4472L99.1056 90.4472L100.894 89.5528ZM90 69H50V71H90V69ZM49.0865 70.4069L66.9029 110.407L68.7298 109.593L50.9135 69.5931L49.0865 70.4069ZM67.8164 111H100V109H67.8164V111ZM99.1702 109.442L79.6702 138.442L81.3298 139.558L100.83 110.558L99.1702 109.442ZM90 161H110V159H90V161ZM110.914 160.406L150.914 70.4061L149.086 69.5939L109.086 159.594L110.914 160.406ZM90.9111 159.588L81.4111 138.588L79.5889 139.412L89.0889 160.412L90.9111 159.588Z" fill="#231F20"/>
<path d="M150 160H110L150 70H190L230 160H190L180 140L170 160L160 140L150 160Z" fill="white" stroke="#231F20" stroke-width="2"/>
<defs>
<linearGradient id="paint0_linear_56_2" x1="120" y1="159.5" x2="120.25" y2="170" gradientUnits="userSpaceOnUse">
<stop stop-color="#231F20"/>
<stop offset="1"/>
</linearGradient>
</defs>
</svg>
