<svg width="80" height="800" viewBox="0 0 80 800" fill="none" xmlns="http://www.w3.org/2000/svg">
<g clip-path="url(#clip0_14_2)">
<rect width="80" height="800" fill="white"/>
<rect width="80" height="800" fill="black"/>
<path d="M22.2 749.151L25.4 749.727C26.296 749.898 27.064 750.346 27.704 751.071C28.3014 751.796 28.6 752.607 28.6 753.503V758.303C28.6 758.73 28.7707 759.135 29.112 759.519C29.4107 759.86 29.7733 760.074 30.2 760.159L57.4 764.959C58.296 765.13 59.064 765.578 59.704 766.303C60.3013 767.028 60.6 767.839 60.6 768.735V778.335C60.6 779.231 60.3013 779.935 59.704 780.447C59.064 780.959 58.296 781.13 57.4 780.959L30.2 776.159C29.7733 776.074 29.4107 776.159 29.112 776.415C28.7707 776.671 28.6 777.034 28.6 777.503V782.303C28.6 783.199 28.3014 783.903 27.704 784.415C27.064 784.927 26.296 785.098 25.4 784.927L22.2 784.351C21.304 784.223 20.5574 783.796 19.96 783.071C19.32 782.303 19 781.471 19 780.575L19 751.775C19 750.922 19.32 750.239 19.96 749.727C20.5574 749.215 21.304 749.023 22.2 749.151ZM28.6 697.937C29.624 697.852 30.6907 697.916 31.8 698.129L47.8 700.945C48.9093 701.116 49.976 701.436 51 701.905C53.7733 703.1 56.0773 705.02 57.912 707.665C59.704 710.268 60.6 713.041 60.6 715.985V725.585C60.6 728.529 59.704 731.004 57.912 733.009C56.0773 734.972 53.7733 736.06 51 736.273C49.976 736.358 48.9093 736.316 47.8 736.145L31.8 733.329C30.6907 733.116 29.624 732.796 28.6 732.369C25.8267 731.132 23.544 729.212 21.752 726.609C19.9174 724.006 19 721.212 19 718.225V708.625C19 705.681 19.9174 703.228 21.752 701.265C23.544 699.26 25.8267 698.15 28.6 697.937ZM49.4 717.201L30.2 713.809C29.7733 713.724 29.4107 713.809 29.112 714.065C28.7707 714.321 28.6 714.684 28.6 715.153C28.6 715.58 28.7707 715.985 29.112 716.369C29.4107 716.71 29.7733 716.924 30.2 717.009L49.4 720.401C49.8267 720.486 50.2107 720.401 50.552 720.145C50.8507 719.889 51 719.548 51 719.121C51 718.652 50.8507 718.246 50.552 717.905C50.2107 717.521 49.8267 717.286 49.4 717.201ZM22.2 642.026L47.8 646.57C51.3413 647.167 54.3707 648.938 56.888 651.882C59.3627 654.826 60.6 658.069 60.6 661.61V671.21C60.6 674.751 59.3627 677.546 56.888 679.594C54.3707 681.642 51.3413 682.367 47.8 681.77L22.2 677.226C21.304 677.098 20.5574 676.671 19.96 675.946C19.32 675.178 19 674.346 19 673.45V663.85C19 662.997 19.32 662.314 19.96 661.802C20.5574 661.29 21.304 661.098 22.2 661.226L49.4 666.026C49.8267 666.111 50.2107 666.026 50.552 665.77C50.8507 665.514 51 665.173 51 664.746C51 664.277 50.8507 663.871 50.552 663.53C50.2107 663.146 49.8267 662.911 49.4 662.826L22.2 658.026C21.304 657.898 20.5574 657.471 19.96 656.746C19.32 655.978 19 655.146 19 654.25L19 644.65C19 643.797 19.32 643.114 19.96 642.602C20.5574 642.09 21.304 641.898 22.2 642.026ZM31.8 589.379C33.8053 589.72 35.5547 590.68 37.048 592.259C38.5413 593.795 39.4373 595.544 39.736 597.507C40.8027 595.672 42.36 594.328 44.408 593.475C46.4133 592.579 48.6107 592.344 51 592.771L57.4 593.859C58.296 594.03 59.064 594.478 59.704 595.203C60.3013 595.928 60.6 596.739 60.6 597.635V607.235C60.6 608.131 60.3013 608.835 59.704 609.347C59.064 609.859 58.296 610.03 57.4 609.859L43 607.363C42.5733 607.278 42.2107 607.363 41.912 607.619C41.5707 607.875 41.4 608.216 41.4 608.643C41.4 609.07 41.5707 609.475 41.912 609.859C42.2107 610.243 42.5733 610.478 43 610.563L57.4 613.059C58.296 613.23 59.064 613.678 59.704 614.403C60.3013 615.128 60.6 615.939 60.6 616.835V626.435C60.6 627.331 60.3013 628.035 59.704 628.547C59.064 629.059 58.296 629.23 57.4 629.059L22.2 622.851C21.304 622.723 20.5574 622.296 19.96 621.571C19.32 620.803 19 619.971 19 619.075L19 595.075C19 592.899 19.7894 591.171 21.368 589.891C22.904 588.568 24.7814 588.099 27 588.483L31.8 589.379ZM33.4 605.635L30.2 605.059C29.7733 604.974 29.4107 605.059 29.112 605.315C28.7707 605.571 28.6 605.934 28.6 606.403C28.6 606.83 28.7707 607.235 29.112 607.619C29.4107 607.96 29.7733 608.174 30.2 608.259L33.4 608.835C33.8267 608.92 34.2107 608.835 34.552 608.579C34.8507 608.323 35 607.982 35 607.555C35 607.086 34.8507 606.68 34.552 606.339C34.2107 605.955 33.8267 605.72 33.4 605.635ZM31.8 535.004L57.4 539.484C58.296 539.655 59.064 540.103 59.704 540.828C60.3013 541.553 60.6 542.364 60.6 543.26V552.86C60.6 553.756 60.3013 554.46 59.704 554.972C59.064 555.484 58.296 555.655 57.4 555.484L30.2 550.684C29.7733 550.599 29.4107 550.684 29.112 550.94C28.7707 551.196 28.6 551.559 28.6 552.028C28.6 552.455 28.7707 552.86 29.112 553.244C29.4107 553.585 29.7733 553.799 30.2 553.884L57.4 558.684C58.296 558.855 59.064 559.303 59.704 560.028C60.3013 560.753 60.6 561.564 60.6 562.46V572.06C60.6 572.956 60.3013 573.66 59.704 574.172C59.064 574.684 58.296 574.855 57.4 574.684L22.2 568.476C21.304 568.348 20.5574 567.921 19.96 567.196C19.32 566.428 19 565.596 19 564.7L19 545.5C19 542.001 20.2587 539.228 22.776 537.18C25.2507 535.089 28.2587 534.364 31.8 535.004ZM30.2 499.509L35 500.341C35.4267 500.426 35.8107 500.341 36.152 500.085C36.4507 499.829 36.6 499.488 36.6 499.061V494.261C36.6 493.365 36.92 492.661 37.56 492.149C38.1573 491.637 38.904 491.466 39.8 491.637C40.696 491.765 41.464 492.213 42.104 492.981C42.7013 493.706 43 494.517 43 495.413V500.213C43 500.64 43.1707 501.045 43.512 501.429C43.8107 501.77 44.1733 501.984 44.6 502.069L49.4 502.901C49.8267 502.986 50.2107 502.901 50.552 502.645C50.8507 502.389 51 502.048 51 501.621C51 501.152 50.8507 500.746 50.552 500.405C50.2107 500.021 49.8267 499.786 49.4 499.701C48.504 499.53 47.7573 499.082 47.16 498.357C46.52 497.632 46.2 496.821 46.2 495.925V486.325C46.2 485.472 46.52 484.789 47.16 484.277C47.7573 483.722 48.504 483.53 49.4 483.701L52.6 484.277C54.8187 484.661 56.7173 485.77 58.296 487.605C59.832 489.44 60.6 491.466 60.6 493.685V508.085C60.6 511.626 59.3627 514.421 56.888 516.469C54.3707 518.517 51.3413 519.242 47.8 518.645L31.8 515.829C28.2587 515.189 25.2507 513.397 22.776 510.453C20.2587 507.509 19 504.266 19 500.725L19 486.325C19 484.149 19.7894 482.421 21.368 481.141C22.904 479.818 24.7814 479.349 27 479.733L30.2 480.309C31.096 480.48 31.864 480.928 32.504 481.653C33.1013 482.378 33.4 483.189 33.4 484.085V493.685C33.4 494.581 33.1013 495.285 32.504 495.797C31.864 496.309 31.096 496.48 30.2 496.309C29.7733 496.224 29.4107 496.309 29.112 496.565C28.7707 496.821 28.6 497.184 28.6 497.653C28.6 498.08 28.7707 498.485 29.112 498.869C29.4107 499.21 29.7733 499.424 30.2 499.509ZM22.2 424.526L47.8 429.07C51.3413 429.667 54.3707 431.438 56.888 434.382C59.3627 437.326 60.6 440.569 60.6 444.11V453.71C60.6 457.251 59.3627 460.046 56.888 462.094C54.3707 464.142 51.3413 464.867 47.8 464.27L22.2 459.726C21.304 459.598 20.5574 459.171 19.96 458.446C19.32 457.678 19 456.846 19 455.95V446.35C19 445.497 19.32 444.814 19.96 444.302C20.5573 443.79 21.304 443.598 22.2 443.726L49.4 448.526C49.8267 448.611 50.2107 448.526 50.552 448.27C50.8507 448.014 51 447.673 51 447.246C51 446.777 50.8507 446.371 50.552 446.03C50.2107 445.646 49.8267 445.411 49.4 445.326L22.2 440.526C21.304 440.398 20.5573 439.971 19.96 439.246C19.32 438.478 19 437.646 19 436.75V427.15C19 426.297 19.32 425.614 19.96 425.102C20.5573 424.59 21.304 424.398 22.2 424.526ZM31.8 371.879C33.8053 372.22 35.5546 373.18 37.048 374.759C38.5413 376.295 39.4373 378.044 39.736 380.007C40.8026 378.172 42.36 376.828 44.408 375.975C46.4133 375.079 48.6106 374.844 51 375.271L57.4 376.359C58.296 376.53 59.064 376.978 59.704 377.703C60.3013 378.428 60.6 379.239 60.6 380.135V389.735C60.6 390.631 60.3013 391.335 59.704 391.847C59.064 392.359 58.296 392.53 57.4 392.359L43 389.863C42.5733 389.778 42.2106 389.863 41.912 390.119C41.5706 390.375 41.4 390.716 41.4 391.143C41.4 391.57 41.5706 391.975 41.912 392.359C42.2106 392.743 42.5733 392.978 43 393.063L57.4 395.559C58.296 395.73 59.064 396.178 59.704 396.903C60.3013 397.628 60.6 398.439 60.6 399.335V408.935C60.6 409.831 60.3013 410.535 59.704 411.047C59.064 411.559 58.296 411.73 57.4 411.559L22.2 405.351C21.304 405.223 20.5573 404.796 19.96 404.071C19.32 403.303 19 402.471 19 401.575L19 377.575C19 375.399 19.7893 373.671 21.368 372.391C22.904 371.068 24.7813 370.599 27 370.983L31.8 371.879ZM33.4 388.135L30.2 387.559C29.7733 387.474 29.4106 387.559 29.112 387.815C28.7706 388.071 28.6 388.434 28.6 388.903C28.6 389.33 28.7706 389.735 29.112 390.119C29.4106 390.46 29.7733 390.674 30.2 390.759L33.4 391.335C33.8266 391.42 34.2106 391.335 34.552 391.079C34.8506 390.823 35 390.482 35 390.055C35 389.586 34.8506 389.18 34.552 388.839C34.2106 388.455 33.8266 388.22 33.4 388.135ZM19 299.187C19 295.689 20.2587 292.915 22.776 290.867C25.2507 288.777 28.2587 288.051 31.8 288.691L57.4 293.171C58.296 293.342 59.064 293.79 59.704 294.515C60.3013 295.241 60.6 296.051 60.6 296.947V306.547C60.6 307.443 60.3013 308.147 59.704 308.659C59.064 309.171 58.296 309.342 57.4 309.171L43 306.675C42.5733 306.59 42.2106 306.675 41.912 306.931C41.5706 307.187 41.4 307.529 41.4 307.955C41.4 308.382 41.5706 308.787 41.912 309.171C42.2106 309.555 42.5733 309.79 43 309.875L57.4 312.371C58.296 312.542 59.064 312.99 59.704 313.715C60.3013 314.441 60.6 315.251 60.6 316.147V325.747C60.6 326.643 60.3013 327.347 59.704 327.859C59.064 328.371 58.296 328.542 57.4 328.371L31.8 323.891C28.2587 323.251 25.2507 321.459 22.776 318.515C20.2587 315.571 19 312.329 19 308.787L19 299.187ZM33.4 304.947L30.2 304.371C29.7733 304.286 29.4106 304.371 29.112 304.627C28.7706 304.883 28.6 305.246 28.6 305.715C28.6 306.142 28.7706 306.547 29.112 306.931C29.4106 307.273 29.7733 307.486 30.2 307.571L33.4 308.147C33.8266 308.233 34.2106 308.147 34.552 307.891C34.8506 307.635 35 307.294 35 306.867C35 306.398 34.8506 305.993 34.552 305.651C34.2106 305.267 33.8266 305.033 33.4 304.947ZM22.2 232.588L33.4 234.572C33.9546 234.658 34.488 234.807 35 235.02C36.8346 235.703 38.3706 236.898 39.608 238.604C40.8026 240.268 41.4 242.06 41.4 243.98C41.4 244.407 41.5706 244.812 41.912 245.196C42.2106 245.58 42.5733 245.815 43 245.9L57.4 248.396C58.296 248.567 59.064 249.015 59.704 249.74C60.3013 250.466 60.6 251.276 60.6 252.172V261.772C60.6 262.668 60.3013 263.372 59.704 263.884C59.064 264.396 58.296 264.567 57.4 264.396L43 261.9C42.5733 261.815 42.2106 261.9 41.912 262.156C41.5706 262.412 41.4 262.754 41.4 263.18C41.4 265.1 40.8026 266.7 39.608 267.98C38.3706 269.218 36.8346 269.858 35 269.9C34.488 269.9 33.9546 269.858 33.4 269.772L22.2 267.788C21.304 267.66 20.5573 267.234 19.96 266.508C19.32 265.74 19 264.908 19 264.012L19 254.412C19 253.559 19.32 252.876 19.96 252.364C20.5573 251.852 21.304 251.66 22.2 251.788L33.4 253.772C33.8266 253.858 34.2106 253.772 34.552 253.516C34.8506 253.26 35 252.919 35 252.492C35 252.023 34.8506 251.618 34.552 251.276C34.2106 250.892 33.8266 250.658 33.4 250.572L22.2 248.588C21.304 248.46 20.5573 248.034 19.96 247.308C19.32 246.54 19 245.708 19 244.812L19 235.212C19 234.359 19.32 233.676 19.96 233.164C20.5573 232.652 21.304 232.46 22.2 232.588ZM31.8 160.741L57.4 165.221C58.296 165.392 59.064 165.84 59.704 166.565C60.3013 167.291 60.6 168.101 60.6 168.997V178.597C60.6 179.493 60.3013 180.197 59.704 180.709C59.064 181.221 58.296 181.392 57.4 181.221L30.2 176.421C29.7733 176.336 29.4106 176.421 29.112 176.677C28.7706 176.933 28.6 177.296 28.6 177.765C28.6 178.192 28.7706 178.597 29.112 178.981C29.4106 179.323 29.7733 179.536 30.2 179.621L57.4 184.421C58.296 184.592 59.064 185.04 59.704 185.765C60.3013 186.491 60.6 187.301 60.6 188.197V197.797C60.6 198.693 60.3013 199.397 59.704 199.909C59.064 200.421 58.296 200.592 57.4 200.421L30.2 195.621C29.7733 195.536 29.4106 195.621 29.112 195.877C28.7706 196.133 28.6 196.496 28.6 196.965C28.6 197.392 28.7706 197.797 29.112 198.181C29.4106 198.523 29.7733 198.736 30.2 198.821L57.4 203.621C58.296 203.792 59.064 204.24 59.704 204.965C60.3013 205.691 60.6 206.501 60.6 207.397V216.997C60.6 217.893 60.3013 218.597 59.704 219.109C59.064 219.621 58.296 219.792 57.4 219.621L31.8 215.141C28.2587 214.501 25.2507 212.709 22.776 209.765C20.2587 206.821 19 203.579 19 200.037L19 171.237C19 167.739 20.2587 164.965 22.776 162.917C25.2507 160.827 28.2587 160.101 31.8 160.741ZM30.2 125.196L35 126.028C35.4266 126.114 35.8106 126.028 36.152 125.772C36.4506 125.516 36.6 125.175 36.6 124.748V119.948C36.6 119.052 36.92 118.348 37.56 117.836C38.1573 117.324 38.904 117.154 39.8 117.324C40.696 117.452 41.464 117.9 42.104 118.668C42.7013 119.394 43 120.204 43 121.1V125.9C43 126.327 43.1706 126.732 43.512 127.116C43.8106 127.458 44.1733 127.671 44.6 127.756L49.4 128.588C49.8266 128.674 50.2106 128.588 50.552 128.332C50.8506 128.076 51 127.735 51 127.308C51 126.839 50.8506 126.434 50.552 126.092C50.2106 125.708 49.8266 125.474 49.4 125.388C48.504 125.218 47.7573 124.77 47.16 124.044C46.52 123.319 46.2 122.508 46.2 121.612V112.012C46.2 111.159 46.52 110.476 47.16 109.964C47.7573 109.41 48.504 109.218 49.4 109.388L52.6 109.964C54.8186 110.348 56.7173 111.458 58.296 113.292C59.832 115.127 60.6 117.154 60.6 119.372V133.772C60.6 137.314 59.3626 140.108 56.888 142.156C54.3706 144.204 51.3413 144.93 47.8 144.332L31.8 141.516C28.2587 140.876 25.2507 139.084 22.776 136.14C20.2587 133.196 19 129.954 19 126.412L19 112.012C19 109.836 19.7893 108.108 21.368 106.828C22.904 105.506 24.7813 105.036 27 105.42L30.2 105.996C31.096 106.167 31.864 106.615 32.504 107.34C33.1013 108.066 33.4 108.876 33.4 109.772V119.372C33.4 120.268 33.1013 120.972 32.504 121.484C31.864 121.996 31.096 122.167 30.2 121.996C29.7733 121.911 29.4106 121.996 29.112 122.252C28.7706 122.508 28.6 122.871 28.6 123.34C28.6 123.767 28.7706 124.172 29.112 124.556C29.4106 124.898 29.7733 125.111 30.2 125.196ZM31.8 51.9414C33.8053 52.2827 35.5546 53.2427 37.048 54.8214C38.5413 56.3574 39.4373 58.1067 39.736 60.0694C40.8026 58.2347 42.36 56.8907 44.408 56.0374C46.4133 55.1414 48.6106 54.9067 51 55.3334L57.4 56.4214C58.296 56.5921 59.064 57.0401 59.704 57.7654C60.3013 58.4907 60.6 59.3014 60.6 60.1974V69.7974C60.6 70.6934 60.3013 71.3974 59.704 71.9094C59.064 72.4214 58.296 72.5921 57.4 72.4214L43 69.9254C42.5733 69.8401 42.2106 69.9254 41.912 70.1814C41.5706 70.4374 41.4 70.7787 41.4 71.2054C41.4 71.6321 41.5706 72.0374 41.912 72.4214C42.2106 72.8054 42.5733 73.0401 43 73.1254L57.4 75.6214C58.296 75.7921 59.064 76.2401 59.704 76.9654C60.3013 77.6907 60.6 78.5014 60.6 79.3974V88.9974C60.6 89.8934 60.3013 90.5974 59.704 91.1094C59.064 91.6214 58.296 91.7921 57.4 91.6214L22.2 85.4134C21.304 85.2854 20.5573 84.8587 19.96 84.1334C19.32 83.3654 19 82.5334 19 81.6374L19 57.6374C19 55.4614 19.7893 53.7334 21.368 52.4534C22.904 51.1307 24.7813 50.6614 27 51.0454L31.8 51.9414ZM33.4 68.1974L30.2 67.6214C29.7733 67.5361 29.4106 67.6214 29.112 67.8774C28.7706 68.1334 28.6 68.4961 28.6 68.9654C28.6 69.3921 28.7706 69.7974 29.112 70.1814C29.4106 70.5227 29.7733 70.7361 30.2 70.8214L33.4 71.3974C33.8266 71.4827 34.2106 71.3974 34.552 71.1414C34.8506 70.8854 35 70.5441 35 70.1174C35 69.6481 34.8506 69.2427 34.552 68.9014C34.2106 68.5174 33.8266 68.2827 33.4 68.1974ZM22.2 15.0384L57.4 21.2464C58.296 21.4171 59.064 21.8651 59.704 22.5904C60.3013 23.3157 60.6 24.1264 60.6 25.0224V34.6224C60.6 35.5184 60.3013 36.2224 59.704 36.7344C59.064 37.2464 58.296 37.4171 57.4 37.2464L22.2 31.0384C21.304 30.9104 20.5573 30.4837 19.96 29.7584C19.32 28.9904 19 28.1584 19 27.2624V17.6624C19 16.8091 19.32 16.1264 19.96 15.6144C20.5573 15.1024 21.304 14.9104 22.2 15.0384Z" fill="white"/>
</g>
<defs>
<clipPath id="clip0_14_2">
<rect width="80" height="800" fill="white"/>
</clipPath>
</defs>
</svg>
