<?xml version="1.0" encoding="utf-8"?>
<!-- Generator: Adobe Illustrator 28.0.0, SVG Export Plug-In . SVG Version: 6.00 Build 0)  -->
<svg version="1.1" id="Calque_1" xmlns="http://www.w3.org/2000/svg" xmlns:xlink="http://www.w3.org/1999/xlink" x="0px" y="0px"
	 viewBox="0 0 1024 360" enable-background="new 0 0 1024 360" xml:space="preserve">
<g>
	<path d="M148.78,90.83v4c0,1.12-0.39,2.07-1.16,2.84c-0.77,0.77-1.72,1.16-2.84,1.16h-6c-0.53,0-1,0.2-1.4,0.6s-0.6,0.87-0.6,1.4
		v102c0,1.12-0.39,2.07-1.16,2.84c-0.77,0.77-1.72,1.16-2.84,1.16h-12c-1.12,0-2.07-0.39-2.84-1.16c-0.77-0.77-1.16-1.72-1.16-2.84
		v-102c0-0.53-0.2-1-0.6-1.4s-0.87-0.6-1.4-0.6h-6c-1.12,0-2.07-0.39-2.84-1.16c-0.77-0.77-1.16-1.72-1.16-2.84v-4
		c0-1.12,0.39-2.07,1.16-2.84c0.77-0.77,1.72-1.16,2.84-1.16h36c1.12,0,2.07,0.39,2.84,1.16C148.39,88.77,148.78,89.71,148.78,90.83
		z"/>
	<path d="M194.3,98.83c0.32,1.28,0.48,2.61,0.48,4v20c0,1.39-0.16,2.72-0.48,4c-0.91,3.47-2.8,6.33-5.68,8.6
		c-2.88,2.27-6.16,3.4-9.84,3.4h-12c-3.68,0-6.96-1.13-9.84-3.4c-2.88-2.27-4.77-5.13-5.68-8.6c-0.32-1.28-0.48-2.61-0.48-4v-20
		c0-1.39,0.16-2.72,0.48-4c0.91-3.47,2.8-6.33,5.68-8.6c2.88-2.27,6.16-3.4,9.84-3.4h12c3.68,0,6.96,1.13,9.84,3.4
		C191.5,92.5,193.39,95.37,194.3,98.83z M174.78,124.83v-24c0-0.53-0.2-1-0.6-1.4s-0.87-0.6-1.4-0.6c-0.53,0-1,0.2-1.4,0.6
		s-0.6,0.87-0.6,1.4v24c0,0.53,0.2,1,0.6,1.4s0.87,0.6,1.4,0.6c0.53,0,1-0.2,1.4-0.6S174.78,125.37,174.78,124.83z"/>
	<path d="M242.78,90.83v32c0,4.43-1.56,8.2-4.68,11.32c-3.12,3.12-6.89,4.68-11.32,4.68h-12c-4.43,0-8.2-1.56-11.32-4.68
		c-3.12-3.12-4.68-6.89-4.68-11.32v-32c0-1.12,0.39-2.07,1.16-2.84c0.77-0.77,1.72-1.16,2.84-1.16h12c1.12,0,2.07,0.39,2.84,1.16
		c0.77,0.77,1.16,1.72,1.16,2.84v34c0,0.53,0.2,1,0.6,1.4s0.87,0.6,1.4,0.6c0.53,0,1-0.2,1.4-0.6s0.6-0.87,0.6-1.4v-34
		c0-1.12,0.39-2.07,1.16-2.84c0.77-0.77,1.72-1.16,2.84-1.16h12c1.12,0,2.07,0.39,2.84,1.16C242.39,88.77,242.78,89.71,242.78,90.83
		z"/>
	<path d="M290.78,102.83c0,2.51-0.81,4.69-2.44,6.56c-1.63,1.87-3.64,2.99-6.04,3.36c2.56,1.33,4.61,3.27,6.16,5.8
		c1.55,2.53,2.32,5.29,2.32,8.28v8c0,1.12-0.39,2.07-1.16,2.84c-0.77,0.77-1.72,1.16-2.84,1.16h-12c-1.12,0-2.07-0.39-2.84-1.16
		c-0.77-0.77-1.16-1.72-1.16-2.84v-18c0-0.53-0.2-1-0.6-1.4s-0.87-0.6-1.4-0.6c-0.53,0-1,0.2-1.4,0.6s-0.6,0.87-0.6,1.4v18
		c0,1.12-0.39,2.07-1.16,2.84c-0.77,0.77-1.72,1.16-2.84,1.16h-12c-1.12,0-2.07-0.39-2.84-1.16c-0.77-0.77-1.16-1.72-1.16-2.84v-44
		c0-1.12,0.39-2.07,1.16-2.84c0.77-0.77,1.72-1.16,2.84-1.16h30c2.77,0,5.13,0.97,7.08,2.92c1.95,1.95,2.92,4.31,2.92,7.08V102.83z
		 M270.78,104.83v-4c0-0.53-0.2-1-0.6-1.4s-0.87-0.6-1.4-0.6c-0.53,0-1,0.2-1.4,0.6s-0.6,0.87-0.6,1.4v4c0,0.53,0.2,1,0.6,1.4
		s0.87,0.6,1.4,0.6c0.53,0,1-0.2,1.4-0.6S270.78,105.37,270.78,104.83z"/>
	<path d="M338.78,102.83v32c0,1.12-0.39,2.07-1.16,2.84c-0.77,0.77-1.72,1.16-2.84,1.16h-12c-1.12,0-2.07-0.39-2.84-1.16
		c-0.77-0.77-1.16-1.72-1.16-2.84v-34c0-0.53-0.2-1-0.6-1.4s-0.87-0.6-1.4-0.6c-0.53,0-1,0.2-1.4,0.6s-0.6,0.87-0.6,1.4v34
		c0,1.12-0.39,2.07-1.16,2.84c-0.77,0.77-1.72,1.16-2.84,1.16h-12c-1.12,0-2.07-0.39-2.84-1.16c-0.77-0.77-1.16-1.72-1.16-2.84v-44
		c0-1.12,0.39-2.07,1.16-2.84c0.77-0.77,1.72-1.16,2.84-1.16h24c4.43,0,8.2,1.56,11.32,4.68
		C337.22,94.63,338.78,98.41,338.78,102.83z"/>
	<path d="M362.77,100.83v6c0,0.53,0.2,1,0.6,1.4s0.87,0.6,1.4,0.6h6c1.12,0,2.07,0.39,2.84,1.16c0.77,0.77,1.16,1.72,1.16,2.84
		s-0.39,2.07-1.16,2.84c-0.77,0.77-1.72,1.16-2.84,1.16h-6c-0.53,0-1,0.2-1.4,0.6s-0.6,0.87-0.6,1.4v6c0,0.53,0.2,1,0.6,1.4
		s0.87,0.6,1.4,0.6c0.53,0,1-0.2,1.4-0.6s0.6-0.87,0.6-1.4c0-1.12,0.39-2.07,1.16-2.84c0.77-0.77,1.72-1.16,2.84-1.16h12
		c1.12,0,2.07,0.39,2.84,1.16c0.77,0.77,1.16,1.72,1.16,2.84v4c0,2.77-0.97,5.13-2.92,7.08c-1.95,1.95-4.31,2.92-7.08,2.92h-18
		c-4.43,0-8.2-1.56-11.32-4.68c-3.12-3.12-4.68-6.89-4.68-11.32v-20c0-4.43,1.56-8.2,4.68-11.32c3.12-3.12,6.89-4.68,11.32-4.68h18
		c2.77,0,5.13,0.97,7.08,2.92c1.95,1.95,2.92,4.31,2.92,7.08v4c0,1.12-0.39,2.07-1.16,2.84c-0.77,0.77-1.72,1.16-2.84,1.16h-12
		c-1.12,0-2.07-0.39-2.84-1.16c-0.77-0.77-1.16-1.72-1.16-2.84c0-0.53-0.2-1-0.6-1.4s-0.87-0.6-1.4-0.6c-0.53,0-1,0.2-1.4,0.6
		S362.77,100.3,362.77,100.83z"/>
	<path d="M434.77,90.83v32c0,4.43-1.56,8.2-4.68,11.32c-3.12,3.12-6.89,4.68-11.32,4.68h-12c-4.43,0-8.2-1.56-11.32-4.68
		c-3.12-3.12-4.68-6.89-4.68-11.32v-32c0-1.12,0.39-2.07,1.16-2.84c0.77-0.77,1.72-1.16,2.84-1.16h12c1.12,0,2.07,0.39,2.84,1.16
		c0.77,0.77,1.16,1.72,1.16,2.84v34c0,0.53,0.2,1,0.6,1.4s0.87,0.6,1.4,0.6c0.53,0,1-0.2,1.4-0.6s0.6-0.87,0.6-1.4v-34
		c0-1.12,0.39-2.07,1.16-2.84c0.77-0.77,1.72-1.16,2.84-1.16h12c1.12,0,2.07,0.39,2.84,1.16C434.39,88.77,434.77,89.71,434.77,90.83
		z"/>
	<path d="M482.77,102.83c0,2.51-0.81,4.69-2.44,6.56c-1.63,1.87-3.64,2.99-6.04,3.36c2.56,1.33,4.61,3.27,6.16,5.8
		c1.55,2.53,2.32,5.29,2.32,8.28v8c0,1.12-0.39,2.07-1.16,2.84c-0.77,0.77-1.72,1.16-2.84,1.16h-12c-1.12,0-2.07-0.39-2.84-1.16
		c-0.77-0.77-1.16-1.72-1.16-2.84v-18c0-0.53-0.2-1-0.6-1.4s-0.87-0.6-1.4-0.6c-0.53,0-1,0.2-1.4,0.6s-0.6,0.87-0.6,1.4V202
		c0,1.12-0.39,2.07-1.16,2.84c-0.77,0.77-1.72,1.16-2.84,1.16h-12c-1.12,0-2.07-0.39-2.84-1.16c-0.77-0.77-1.16-1.72-1.16-2.84
		V90.83c0-1.12,0.39-2.07,1.16-2.84c0.77-0.77,1.72-1.16,2.84-1.16h30c2.77,0,5.13,0.97,7.08,2.92c1.95,1.95,2.92,4.31,2.92,7.08
		V102.83z M462.77,104.83v-4c0-0.53-0.2-1-0.6-1.4s-0.87-0.6-1.4-0.6c-0.53,0-1,0.2-1.4,0.6s-0.6,0.87-0.6,1.4v4
		c0,0.53,0.2,1,0.6,1.4s0.87,0.6,1.4,0.6c0.53,0,1-0.2,1.4-0.6S462.77,105.37,462.77,104.83z"/>
	<path d="M202.78,154c4.43,0,8.2,1.56,11.32,4.68c3.12,3.12,4.68,6.89,4.68,11.32v32c0,1.12-0.39,2.07-1.16,2.84
		c-0.77,0.77-1.72,1.16-2.84,1.16h-12c-1.12,0-2.07-0.39-2.84-1.16c-0.77-0.77-1.16-1.72-1.16-2.84v-18c0-0.53-0.2-1-0.6-1.4
		c-0.4-0.4-0.87-0.6-1.4-0.6c-0.53,0-1,0.2-1.4,0.6c-0.4,0.4-0.6,0.87-0.6,1.4v18c0,1.12-0.39,2.07-1.16,2.84
		c-0.77,0.77-1.72,1.16-2.84,1.16h-12c-1.12,0-2.07-0.39-2.84-1.16c-0.77-0.77-1.16-1.72-1.16-2.84v-32c0-4.43,1.56-8.2,4.68-11.32
		c3.12-3.12,6.89-4.68,11.32-4.68H202.78z M198.78,172v-4c0-0.53-0.2-1-0.6-1.4c-0.4-0.4-0.87-0.6-1.4-0.6c-0.53,0-1,0.2-1.4,0.6
		c-0.4,0.4-0.6,0.87-0.6,1.4v4c0,0.53,0.2,1,0.6,1.4c0.4,0.4,0.87,0.6,1.4,0.6c0.53,0,1-0.2,1.4-0.6
		C198.58,173,198.78,172.53,198.78,172z"/>
	<path d="M266.78,158v14c0,0.69-0.08,1.36-0.24,2c-0.43,2.29-1.56,4.2-3.4,5.72c-1.84,1.52-3.96,2.28-6.36,2.28
		c-0.53,0-1,0.2-1.4,0.6c-0.4,0.4-0.6,0.87-0.6,1.4v18c0,1.12-0.39,2.07-1.16,2.84c-0.77,0.77-1.72,1.16-2.84,1.16h-12
		c-1.12,0-2.07-0.39-2.84-1.16c-0.77-0.77-1.16-1.72-1.16-2.84v-18c0-0.53-0.2-1-0.6-1.4c-0.4-0.4-0.87-0.6-1.4-0.6
		c-2.4,0-4.52-0.76-6.36-2.28c-1.84-1.52-3-3.43-3.48-5.72c-0.11-0.64-0.16-1.31-0.16-2v-14c0-1.12,0.39-2.07,1.16-2.84
		c0.77-0.77,1.72-1.16,2.84-1.16h12c1.12,0,2.07,0.39,2.84,1.16c0.77,0.77,1.16,1.72,1.16,2.84v14c0,0.53,0.2,1,0.6,1.4
		c0.4,0.4,0.87,0.6,1.4,0.6c0.53,0,1-0.2,1.4-0.6c0.4-0.4,0.6-0.87,0.6-1.4v-14c0-1.12,0.39-2.07,1.16-2.84
		c0.77-0.77,1.72-1.16,2.84-1.16h12c1.12,0,2.07,0.39,2.84,1.16C266.39,155.93,266.78,156.88,266.78,158z"/>
	<path d="M338.78,170v32c0,1.12-0.39,2.07-1.16,2.84c-0.77,0.77-1.72,1.16-2.84,1.16h-12c-1.12,0-2.07-0.39-2.84-1.16
		c-0.77-0.77-1.16-1.72-1.16-2.84v-34c0-0.53-0.2-1-0.6-1.4c-0.4-0.4-0.87-0.6-1.4-0.6c-0.53,0-1,0.2-1.4,0.6
		c-0.4,0.4-0.6,0.87-0.6,1.4v34c0,1.12-0.39,2.07-1.16,2.84c-0.77,0.77-1.72,1.16-2.84,1.16h-12c-1.12,0-2.07-0.39-2.84-1.16
		c-0.77-0.77-1.16-1.72-1.16-2.84v-34c0-0.53-0.2-1-0.6-1.4c-0.4-0.4-0.87-0.6-1.4-0.6c-0.53,0-1,0.2-1.4,0.6
		c-0.4,0.4-0.6,0.87-0.6,1.4v34c0,1.12-0.39,2.07-1.16,2.84c-0.77,0.77-1.72,1.16-2.84,1.16h-12c-1.12,0-2.07-0.39-2.84-1.16
		c-0.77-0.77-1.16-1.72-1.16-2.84v-32c0-4.43,1.56-8.2,4.68-11.32c3.12-3.12,6.89-4.68,11.32-4.68h36c4.43,0,8.2,1.56,11.32,4.68
		C337.22,161.8,338.78,165.57,338.78,170z"/>
	<path d="M366.78,192v-6c0-0.53-0.2-1-0.6-1.4c-0.4-0.4-0.87-0.6-1.4-0.6h-6c-1.12,0-2.07-0.39-2.84-1.16
		c-0.77-0.77-1.16-1.72-1.16-2.84s0.39-2.07,1.16-2.84c0.77-0.77,1.72-1.16,2.84-1.16h6c0.53,0,1-0.2,1.4-0.6
		c0.4-0.4,0.6-0.87,0.6-1.4v-6c0-0.53-0.2-1-0.6-1.4c-0.4-0.4-0.87-0.6-1.4-0.6c-0.53,0-1,0.2-1.4,0.6c-0.4,0.4-0.6,0.87-0.6,1.4
		c0,1.12-0.39,2.07-1.16,2.84c-0.77,0.77-1.72,1.16-2.84,1.16h-12c-1.12,0-2.07-0.39-2.84-1.16c-0.77-0.77-1.16-1.72-1.16-2.84v-4
		c0-2.77,0.97-5.13,2.92-7.08c1.95-1.95,4.31-2.92,7.08-2.92h18c4.43,0,8.2,1.56,11.32,4.68c3.12,3.12,4.68,6.89,4.68,11.32v20
		c0,4.43-1.56,8.2-4.68,11.32c-3.12,3.12-6.89,4.68-11.32,4.68h-18c-2.77,0-5.13-0.97-7.08-2.92c-1.95-1.95-2.92-4.31-2.92-7.08v-4
		c0-1.12,0.39-2.07,1.16-2.84c0.77-0.77,1.72-1.16,2.84-1.16h12c1.12,0,2.07,0.39,2.84,1.16c0.77,0.77,1.16,1.72,1.16,2.84
		c0,0.53,0.2,1,0.6,1.4c0.4,0.4,0.87,0.6,1.4,0.6c0.53,0,1-0.2,1.4-0.6C366.58,193,366.78,192.53,366.78,192z"/>
	<path d="M434.77,170c0,2.51-0.81,4.69-2.44,6.56c-1.63,1.87-3.64,2.99-6.04,3.36c2.56,1.33,4.61,3.27,6.16,5.8
		c1.55,2.53,2.32,5.29,2.32,8.28v8c0,1.12-0.39,2.07-1.16,2.84c-0.77,0.77-1.72,1.16-2.84,1.16h-12c-1.12,0-2.07-0.39-2.84-1.16
		c-0.77-0.77-1.16-1.72-1.16-2.84v-18c0-0.53-0.2-1-0.6-1.4c-0.4-0.4-0.87-0.6-1.4-0.6c-0.53,0-1,0.2-1.4,0.6
		c-0.4,0.4-0.6,0.87-0.6,1.4v18c0,1.12-0.39,2.07-1.16,2.84c-0.77,0.77-1.72,1.16-2.84,1.16h-12c-1.12,0-2.07-0.39-2.84-1.16
		c-0.77-0.77-1.16-1.72-1.16-2.84v-44c0-1.12,0.39-2.07,1.16-2.84c0.77-0.77,1.72-1.16,2.84-1.16h30c2.77,0,5.13,0.97,7.08,2.92
		c1.95,1.95,2.92,4.31,2.92,7.08V170z M414.77,172v-4c0-0.53-0.2-1-0.6-1.4c-0.4-0.4-0.87-0.6-1.4-0.6c-0.53,0-1,0.2-1.4,0.6
		c-0.4,0.4-0.6,0.87-0.6,1.4v4c0,0.53,0.2,1,0.6,1.4c0.4,0.4,0.87,0.6,1.4,0.6c0.53,0,1-0.2,1.4-0.6
		C414.57,173,414.77,172.53,414.77,172z"/>
</g>
<g>
	<path fill="#00A5E6" d="M319.64,197.98c0,1.41-1.41,2.6-4.22,3.57s-6.25,1.46-10.31,1.46c-4.09,0-9.17-0.56-15.23-1.68
		c-3.2,1.67-6.13,4.13-8.79,7.4c-2.66,3.27-5.51,7.9-8.55,13.89c-3.05,5.99-5.28,9.98-6.7,11.97c-1.42,1.99-3.37,3.93-5.84,5.8
		c-6.54,4.84-13.32,7.27-20.35,7.27c-3.75,0-6.82-0.79-9.2-2.38s-3.57-3.65-3.57-6.17c0-1.28,0.38-2.37,1.13-3.28
		c0.75-0.91,1.65-1.37,2.7-1.37c1.69,0,2.54,0.89,2.54,2.66c0,0.83-0.26,1.55-0.78,2.15c-0.52,0.6-1.16,0.9-1.91,0.9
		c-1.22,0-1.84-0.6-1.84-1.8c0-0.62-0.1-0.94-0.31-0.94c-0.44,0-0.66,0.64-0.66,1.91c0,2.11,1.09,3.89,3.26,5.35
		c2.17,1.46,4.85,2.19,8.03,2.19c6.98,0,13.24-3.15,18.79-9.45c2.6-2.94,5.96-7.8,10.08-14.57c6.72-10.99,13.74-18.22,21.05-21.68
		c-1.41-0.23-3.52-0.66-6.33-1.29c-6.62-1.43-11.68-2.15-15.2-2.15c-0.37,0-1.46,0.05-3.28,0.16c1.22,2.29,1.84,4.91,1.84,7.85
		c0,5.73-2.17,11.11-6.52,16.13c-4.35,5.03-9,7.54-13.95,7.54c-2.06,0-3.73-0.68-5.02-2.05s-1.93-3.13-1.93-5.29
		c0-2.97,1.13-6.26,3.38-9.86c2.25-3.61,5.17-6.76,8.75-9.45c3.58-2.7,7.51-4.58,11.78-5.64c-2.06-2.79-4.98-4.18-8.78-4.18
		c-3.2,0-6.43,0.93-9.7,2.8c-3.27,1.87-6.14,4.4-8.61,7.61c-0.36,0.5-0.61,0.74-0.74,0.74c-0.16,0-0.26-0.08-0.31-0.23
		c0-0.44,1.07-1.73,3.2-3.87c5.13-5.11,10.49-7.67,16.08-7.67c4.35,0,7.65,1.52,9.92,4.57c3.15-0.91,6.77-1.37,10.86-1.37
		c2.11,0,4.04,0.13,5.78,0.39c1.85,0.29,6.38,1.17,13.59,2.66c6.02-2.63,11.8-3.95,17.34-3.95
		C316.79,194.62,319.64,195.75,319.64,197.98z M264.45,203.84c0-2.08-0.48-4.01-1.45-5.78c-5.83,0.96-11.26,3.97-16.29,9.02
		c-5.03,5.05-7.54,10.03-7.54,14.92c0,1.88,0.58,3.45,1.74,4.73c1.16,1.28,2.58,1.91,4.28,1.91c4.4,0,8.71-2.71,12.93-8.14
		S264.45,209.52,264.45,203.84z M319.02,198.06c0-0.75-0.74-1.39-2.21-1.91c-1.47-0.52-3.33-0.78-5.57-0.78
		c-5.57,0-10.98,1.17-16.21,3.52c0.65,0.1,2.38,0.42,5.2,0.94c4.17,0.81,7.86,1.21,11.09,1.21c2.11,0,3.92-0.29,5.43-0.88
		C318.26,199.57,319.02,198.87,319.02,198.06z"/>
	<path fill="#00A5E6" d="M298.14,233.63c0,0.42-0.77,1.39-2.31,2.92c-2.29,2.29-4.4,3.43-6.33,3.43c-0.81,0-1.53-0.16-2.15-0.47
		c-3.44,4.87-6.67,7.3-9.69,7.3c-1.56,0-2.9-0.64-4.01-1.93s-1.66-2.83-1.66-4.63c0-4.01,2.63-7.88,7.89-11.6
		c3.7-2.63,6.74-3.95,9.14-3.95c2.24,0,3.36,1.2,3.36,3.59c0,3-1.58,6.6-4.73,10.82c0.52,0.31,1.11,0.47,1.76,0.47
		c1.17,0,2.54-0.54,4.11-1.63c1.57-1.09,2.85-2.4,3.84-3.93c0.29-0.36,0.5-0.55,0.63-0.55
		C298.09,233.47,298.14,233.53,298.14,233.63z M291.79,228.38c0-2.11-0.95-3.16-2.85-3.16c-2.37,0-5.26,2.27-8.67,6.8
		c-3.41,4.53-5.12,8.35-5.12,11.45c0,1.8,0.86,2.7,2.58,2.7c2.81,0,5.88-2.32,9.22-6.95c-0.76-0.83-1.13-1.69-1.13-2.58
		c0-1.28,0.51-2.59,1.52-3.95c1.02-1.35,2-2.03,2.97-2.03c0.42,0,0.7,0.26,0.86,0.78C291.58,230.51,291.79,229.5,291.79,228.38z"/>
	<path fill="#00A5E6" d="M323.26,233.67c0,0.6-1.89,3.13-5.67,7.59c-3.13,3.7-5.61,5.56-7.43,5.56c-1.15,0-2.12-0.46-2.91-1.39
		s-1.19-2.04-1.19-3.34c0-1.02,0.51-2.43,1.52-4.26l-0.78,1.05c-2.4,3.07-4.15,5.13-5.27,6.17c-1.22,1.17-2.38,1.76-3.48,1.76
		c-1.15,0-2.11-0.45-2.89-1.35s-1.17-2-1.17-3.3c0-1.51,0.59-3.24,1.76-5.2l7.11-11.95c0.88,0.18,1.58,0.27,2.07,0.27
		c0.49,0,1.38-0.09,2.66-0.27l-9.3,15.31c-0.94,1.56-1.41,2.94-1.41,4.14c0,1.17,0.49,1.76,1.48,1.76c2.63,0,6.85-4.91,12.66-14.73
		l3.83-6.48c0.81,0.18,1.48,0.27,2.03,0.27c0.65,0,1.58-0.09,2.77-0.27l-6.25,10.2c-2.97,4.84-4.45,7.96-4.45,9.34
		c0,1.12,0.53,1.68,1.6,1.68c2.09,0,5.48-3.29,10.17-9.86l1.21-1.68l0.7-0.86c0.13-0.26,0.26-0.39,0.39-0.39
		C323.18,233.43,323.26,233.51,323.26,233.67z"/>
	<path fill="#00A5E6" d="M345.52,233.67c0,0.21-0.78,1.16-2.35,2.86c-1.98,2.2-3.85,3.29-5.6,3.29c-1.98,0-2.97-1.15-2.97-3.44
		c0-0.73,0.16-1.65,0.47-2.77c-1.64,1.43-2.98,2.85-4,4.26c-1.03,1.41-2.81,4.27-5.33,8.59c-1.38-0.1-2.19-0.16-2.42-0.16
		c-0.1,0-0.9,0.05-2.38,0.16l6.41-10.39c3.2-5.21,4.8-8.44,4.8-9.69c0-0.73-0.3-1.09-0.9-1.09c-1.46,0-4.11,2.81-7.95,8.42
		c-0.23,0.37-0.44,0.55-0.63,0.55c-0.1-0.03-0.16-0.1-0.16-0.23c0.03-0.13,0.08-0.24,0.16-0.31l0.7-0.98
		c4.02-5.35,6.74-8.03,8.18-8.03c2.09,0,3.13,1.34,3.13,4.02c0,2.01-1.07,4.66-3.2,7.97c1.35-1.56,2.64-2.84,3.87-3.83
		c0.99-2.32,2.22-4.26,3.69-5.82c1.47-1.56,2.79-2.34,3.96-2.34c0.81,0,1.21,0.35,1.21,1.05c0,1.25-1.81,3.03-5.43,5.35
		c-0.57,0.37-1.43,0.9-2.58,1.6l-0.47,0.39c-0.37,1.2-0.55,2.19-0.55,2.97c0,2.19,0.82,3.28,2.47,3.28c2.04,0,4.25-1.69,6.65-5.06
		c0.52-0.57,0.85-0.86,0.98-0.86C345.44,233.43,345.52,233.51,345.52,233.67z"/>
	<path fill="#00A5E6" d="M376.77,233.67c0,0.55-1.89,3.08-5.67,7.59c-3.1,3.7-5.54,5.56-7.31,5.56c-1.17,0-2.16-0.46-2.95-1.37
		c-0.79-0.91-1.19-2.03-1.19-3.36c0-1.17,0.24-2.26,0.72-3.26c0.48-1,1.74-2.99,3.77-5.96c2.11-3.12,3.16-5.12,3.16-5.98
		c0-1.07-0.56-1.6-1.68-1.6c-3.8,0-9.66,7.06-17.58,21.17c-1.28-0.1-2.04-0.16-2.3-0.16c-0.91,0-1.77,0.05-2.58,0.16l6.09-9.65
		c3.46-5.52,5.2-8.97,5.2-10.35c0-0.78-0.33-1.17-0.98-1.17c-1.33,0-3.95,2.81-7.87,8.42c-0.23,0.34-0.42,0.52-0.55,0.55
		c-0.13,0-0.21-0.08-0.23-0.23c0.03-0.13,0.08-0.24,0.16-0.31l0.74-0.98c3.99-5.35,6.68-8.03,8.06-8.03c0.89,0,1.64,0.4,2.27,1.21
		c0.63,0.81,0.94,1.77,0.94,2.89c0,1.67-0.98,3.98-2.93,6.95c3.07-4.24,5.44-7.15,7.09-8.71c1.65-1.56,3.18-2.34,4.59-2.34
		c1.15,0,2.11,0.47,2.89,1.41s1.17,2.1,1.17,3.48c0,1.75-1.2,4.41-3.59,8.01c-2.45,3.67-3.67,6.02-3.67,7.03
		c0,1.07,0.53,1.6,1.6,1.6c2.32,0,6.32-4.13,12.01-12.4c0.13-0.26,0.26-0.39,0.39-0.39C376.69,233.43,376.77,233.51,376.77,233.67z"
		/>
	<path fill="#00A5E6" d="M396.46,233.71c0,0.08-0.23,0.42-0.7,1.01l-1.68,2.11c-5.4,6.66-10.02,9.99-13.88,9.99
		c-1.82,0-3.36-0.66-4.59-1.97c-1.24-1.31-1.86-2.96-1.86-4.94c0-4.69,3.27-8.81,9.8-12.38c3.44-1.88,6.24-2.81,8.4-2.81
		c0.94,0,1.74,0.28,2.4,0.84c0.66,0.56,1,1.24,1,2.05c0,1.88-1.22,3.47-3.67,4.79c-2.45,1.32-6.54,2.55-12.27,3.69
		c-1.77,2.68-2.66,4.92-2.66,6.72c0,2.24,1.21,3.36,3.64,3.36c4.12,0,9.16-4.02,15.13-12.05c0.31-0.42,0.57-0.62,0.78-0.62
		C396.41,233.5,396.46,233.58,396.46,233.71z M393.16,226.46c0-0.83-0.46-1.25-1.37-1.25c-1.38,0-3.2,0.96-5.45,2.87
		c-2.25,1.91-4.46,4.39-6.62,7.44c3.75-0.96,6.93-2.32,9.53-4.08C391.86,229.68,393.16,228.02,393.16,226.46z"/>
	<path fill="#00A5E6" d="M421.5,233.67c0,0.6-1.89,3.13-5.67,7.59c-3.13,3.7-5.61,5.56-7.43,5.56c-1.15,0-2.12-0.46-2.91-1.39
		s-1.19-2.04-1.19-3.34c0-1.02,0.51-2.43,1.52-4.26l-0.78,1.05c-2.4,3.07-4.15,5.13-5.27,6.17c-1.22,1.17-2.38,1.76-3.48,1.76
		c-1.15,0-2.11-0.45-2.89-1.35s-1.17-2-1.17-3.3c0-1.51,0.59-3.24,1.76-5.2l7.11-11.95c0.88,0.18,1.58,0.27,2.07,0.27
		c0.49,0,1.38-0.09,2.66-0.27l-9.3,15.31c-0.94,1.56-1.41,2.94-1.41,4.14c0,1.17,0.49,1.76,1.48,1.76c2.63,0,6.85-4.91,12.66-14.73
		l3.83-6.48c0.81,0.18,1.48,0.27,2.03,0.27c0.65,0,1.58-0.09,2.77-0.27l-6.25,10.2c-2.97,4.84-4.45,7.96-4.45,9.34
		c0,1.12,0.53,1.68,1.6,1.68c2.09,0,5.48-3.29,10.17-9.86l1.21-1.68l0.7-0.86c0.13-0.26,0.26-0.39,0.39-0.39
		C421.42,233.43,421.5,233.51,421.5,233.67z"/>
	<path fill="#00A5E6" d="M443.77,233.67c0,0.21-0.78,1.16-2.35,2.86c-1.98,2.2-3.85,3.29-5.6,3.29c-1.98,0-2.97-1.15-2.97-3.44
		c0-0.73,0.16-1.65,0.47-2.77c-1.64,1.43-2.98,2.85-4,4.26c-1.03,1.41-2.81,4.27-5.33,8.59c-1.38-0.1-2.19-0.16-2.42-0.16
		c-0.1,0-0.9,0.05-2.38,0.16l6.41-10.39c3.2-5.21,4.8-8.44,4.8-9.69c0-0.73-0.3-1.09-0.9-1.09c-1.46,0-4.11,2.81-7.95,8.42
		c-0.23,0.37-0.44,0.55-0.63,0.55c-0.1-0.03-0.16-0.1-0.16-0.23c0.03-0.13,0.08-0.24,0.16-0.31l0.7-0.98
		c4.02-5.35,6.74-8.03,8.18-8.03c2.09,0,3.13,1.34,3.13,4.02c0,2.01-1.07,4.66-3.2,7.97c1.35-1.56,2.64-2.84,3.87-3.83
		c0.99-2.32,2.22-4.26,3.69-5.82c1.47-1.56,2.79-2.34,3.96-2.34c0.81,0,1.21,0.35,1.21,1.05c0,1.25-1.81,3.03-5.43,5.35
		c-0.57,0.37-1.43,0.9-2.58,1.6l-0.47,0.39c-0.37,1.2-0.55,2.19-0.55,2.97c0,2.19,0.82,3.28,2.47,3.28c2.04,0,4.25-1.69,6.65-5.06
		c0.52-0.57,0.85-0.86,0.98-0.86C443.69,233.43,443.77,233.51,443.77,233.67z"/>
	<path fill="#00A5E6" d="M562.18,199.12c0,0.47-0.27,0.7-0.82,0.7c-0.23,0-1.11-0.16-2.62-0.47c-2.79-0.57-5.1-0.86-6.95-0.86
		c-4.19,1.28-7.9,3.75-11.11,7.42c-3.22,3.67-6.88,9.62-11,17.85c-6.3,12.63-14.38,20.09-24.22,22.38c2.06,0.31,3.84,0.47,5.36,0.47
		c4.79,0,8.82-1.54,12.08-4.62c3.15-2.97,5.77-6.13,7.86-9.47c0.23-0.37,0.42-0.55,0.55-0.55c0.16,0,0.25,0.05,0.27,0.16
		c0,0.39-1.5,2.41-4.49,6.06c-2.79,3.42-5.33,5.77-7.62,7.06c-2.29,1.29-5.09,1.94-8.4,1.94c-1.9,0-4.22-0.27-6.96-0.82
		c-1.67,0.55-3.58,0.82-5.75,0.82c-1.51,0-2.27-0.27-2.27-0.82c0-0.62,1.02-0.94,3.05-0.94c1.43,0,3.09,0.13,4.96,0.39
		c4.04-0.96,7.09-2.55,9.16-4.77c2.07-2.21,6.06-8.2,11.97-17.97h-15.04c-6.38,6.72-11.32,11.5-14.8,14.34
		c-8.15,6.62-15.83,9.92-23.05,9.92c-4.12,0-7.61-0.96-10.49-2.89c-2.88-1.93-4.32-4.27-4.32-7.03c0-1.43,0.44-2.66,1.31-3.67
		c0.87-1.02,1.93-1.52,3.18-1.52c1.69,0,2.54,0.82,2.54,2.46c0,0.86-0.29,1.6-0.87,2.21c-0.58,0.61-1.26,0.92-2.04,0.92
		c-1.22,0-1.82-0.59-1.82-1.76l0.08-0.78c0.05-0.1,0.08-0.25,0.08-0.43c0-0.26-0.12-0.39-0.35-0.39c-0.26,0-0.52,0.33-0.78,0.98
		c-0.26,0.65-0.39,1.32-0.39,1.99c0,2.55,1.34,4.71,4.02,6.46c2.68,1.76,5.97,2.64,9.88,2.64c5.59,0,11.75-2.75,18.46-8.24
		c1.54-1.22,3.24-2.84,5.11-4.84c3.72-3.91,6.69-6.95,8.9-9.14l1.17-1.21h-7.58l0.47-0.7c2.5,0,5.06,0.03,7.7,0.08
		c7.63-8.49,15.03-14.69,22.21-18.61c7.17-3.92,14.76-5.9,22.75-5.96c1.85-0.36,3.58-0.55,5.2-0.55
		C560.37,197.36,562.18,197.95,562.18,199.12z M520.37,206.21c0,0.29-0.48,0.98-1.45,2.08c-2.66,3.06-5.18,4.58-7.55,4.58
		c-1.51,0-2.75-0.53-3.7-1.58s-1.43-2.44-1.43-4.16c0-1.46,0.86-3.81,2.58-7.07c0.81-1.51,1.21-2.76,1.21-3.75
		c0-1.3-0.72-2.42-2.17-3.34c-1.45-0.92-3.21-1.39-5.29-1.39c-5.96,0-11.49,2.29-16.58,6.88c-5.09,4.58-7.64,9.54-7.64,14.88
		c0,2.71,0.85,4.92,2.56,6.64s3.92,2.58,6.63,2.58c2.94,0,5.91-1.07,8.89-3.22c2.98-2.15,5.09-4.73,6.31-7.75
		c0.08-0.26,0.18-0.39,0.31-0.39c0.23,0,0.35,0.13,0.35,0.39c0,0.55-0.46,1.52-1.37,2.91c-0.91,1.39-1.85,2.56-2.81,3.5
		c-3.52,3.46-7.47,5.2-11.84,5.2c-2.97,0-5.36-0.91-7.15-2.73c-1.8-1.82-2.7-4.24-2.7-7.27c0-5.49,2.65-10.59,7.95-15.27
		c5.3-4.69,11.05-7.03,17.25-7.03c2.73,0,4.88,0.68,6.43,2.03c1.55,1.35,2.32,3.22,2.32,5.59c0,1.77-0.62,3.87-1.88,6.29
		c-1.12,2.21-1.68,3.71-1.68,4.49c0,1.93,1.15,2.89,3.44,2.89c2.61,0,5.31-1.93,8.1-5.8c0.23-0.31,0.43-0.47,0.59-0.47
		C520.26,205.89,520.37,206,520.37,206.21z M549.8,198.65c-6.8,0.34-13.1,2.29-18.91,5.86c-5.81,3.57-12.5,9.56-20.08,17.97h14.8
		c3.33-5.81,7.36-11.02,12.07-15.62C542.33,202.27,546.36,199.53,549.8,198.65z"/>
	<path fill="#00A5E6" d="M555.09,233.71c0,0.39-1.43,2.17-4.3,5.34c-3.18,3.49-7.33,6.63-12.44,9.44l-1.91,3.44
		c-3.78,6.77-7.72,11.81-11.84,15.12c-4.24,3.41-7.93,5.12-11.05,5.12c-1.07,0-1.96-0.34-2.68-1.02c-0.72-0.68-1.07-1.51-1.07-2.5
		c0-5.23,6.03-10.65,18.09-16.25c0.99-0.5,2.47-1.19,4.45-2.07l0.59-0.35l6.88-12.23c-2.71,3.72-4.67,6.17-5.9,7.32
		c-1.22,1.16-2.46,1.74-3.71,1.74c-1.07,0-2-0.46-2.79-1.37c-0.79-0.91-1.19-1.98-1.19-3.2c0-1.48,0.92-3.8,2.77-6.95l6.02-10.16
		c0.6,0.1,1.29,0.16,2.07,0.16c0.68,0,1.61-0.09,2.81-0.27l-7.7,12.5c-2.19,3.54-3.28,5.86-3.28,6.95c0,1.17,0.53,1.76,1.6,1.76
		c2.81,0,7.13-4.99,12.97-14.96l3.59-6.13c0.6,0.1,1.33,0.16,2.19,0.16c0.7,0,1.58-0.09,2.62-0.27c-3.23,5.13-7.6,12.66-13.12,22.58
		c3.18-1.64,5.87-3.41,8.06-5.32c2.19-1.91,4.64-4.61,7.35-8.09c0.37-0.47,0.6-0.7,0.7-0.7
		C555.01,233.47,555.09,233.55,555.09,233.71z M532.53,250.64c-0.42,0.23-1.89,0.98-4.41,2.23c-11.85,5.88-17.77,11.17-17.77,15.86
		c0,1.95,1.09,2.93,3.28,2.93c2.76,0,5.51-1.5,8.24-4.49c2.73-3,6.12-8.24,10.16-15.74L532.53,250.64z"/>
	<path fill="#00A5E6" d="M598.61,233.67c-0.03,0.08-0.16,0.29-0.39,0.63l-1.68,2.31c-4.9,6.81-8.53,10.21-10.87,10.21
		c-1.23,0-2.23-0.46-3.01-1.37s-1.17-2.08-1.17-3.52c0-1.46,0.49-3.03,1.48-4.73c0.18-0.31,1.13-1.71,2.85-4.18
		c2.19-3.12,3.28-5.17,3.28-6.13c0-1.07-0.53-1.6-1.6-1.6c-3.44,0-9.34,7.06-17.7,21.17c-0.52-0.1-1.24-0.16-2.15-0.16
		c-1.07,0-1.98,0.05-2.73,0.16l5.55-8.79c3.62-5.78,5.43-9.32,5.43-10.62c0-1.17-0.48-1.76-1.45-1.76c-1.43,0-3.78,2.06-7.03,6.17
		c-3.26,4.12-6.48,9.12-9.69,15c-0.6-0.1-1.37-0.16-2.3-0.16c-1.02,0-1.9,0.05-2.66,0.16l5.59-8.79c3.85-6.04,5.78-9.78,5.78-11.21
		c0-0.78-0.3-1.17-0.9-1.17c-1.28,0-3.93,2.79-7.95,8.38c-0.26,0.36-0.47,0.55-0.63,0.55c-0.1-0.03-0.16-0.1-0.16-0.23
		c0-0.23,1.2-1.86,3.6-4.87c2.35-2.94,4.16-4.41,5.44-4.41c0.83,0,1.55,0.4,2.15,1.19c0.6,0.79,0.9,1.74,0.9,2.83
		c0,1.51-0.77,3.61-2.3,6.29c4.69-6.88,8.18-10.31,10.47-10.31c1.09,0,1.99,0.44,2.7,1.33c0.7,0.89,1.05,1.99,1.05,3.32
		c0,1.48-0.69,3.37-2.07,5.66c4.95-6.88,8.66-10.31,11.13-10.31c1.12,0,2.06,0.48,2.83,1.45c0.77,0.96,1.15,2.14,1.15,3.52
		c0,1.62-0.64,3.5-1.91,5.66c-0.03,0.03-1.15,1.69-3.36,5c-1.28,1.88-1.91,3.31-1.91,4.3c0,1.07,0.54,1.6,1.6,1.6
		c2.03,0,5.4-3.29,10.09-9.86l1.21-1.68l0.7-0.86c0.13-0.26,0.26-0.39,0.39-0.39C598.53,233.43,598.61,233.51,598.61,233.67z"/>
	<path fill="#00A5E6" d="M618.37,233.71c0,0.08-0.24,0.42-0.7,1.01l-1.68,2.11c-5.4,6.66-10.02,9.99-13.88,9.99
		c-1.83,0-3.36-0.66-4.59-1.97c-1.24-1.31-1.86-2.96-1.86-4.94c0-4.69,3.27-8.81,9.8-12.38c3.44-1.88,6.24-2.81,8.4-2.81
		c0.94,0,1.74,0.28,2.4,0.84c0.66,0.56,1,1.24,1,2.05c0,1.88-1.22,3.47-3.67,4.79c-2.45,1.32-6.54,2.55-12.27,3.69
		c-1.77,2.68-2.66,4.92-2.66,6.72c0,2.24,1.21,3.36,3.64,3.36c4.12,0,9.16-4.02,15.13-12.05c0.31-0.42,0.57-0.62,0.78-0.62
		C618.32,233.5,618.37,233.58,618.37,233.71z M615.07,226.46c0-0.83-0.46-1.25-1.37-1.25c-1.38,0-3.2,0.96-5.45,2.87
		c-2.25,1.91-4.46,4.39-6.62,7.44c3.75-0.96,6.93-2.32,9.53-4.08C613.77,229.68,615.07,228.02,615.07,226.46z"/>
	<path fill="#00A5E6" d="M640.64,233.67c0,0.21-0.78,1.16-2.35,2.86c-1.98,2.2-3.85,3.29-5.6,3.29c-1.98,0-2.97-1.15-2.97-3.44
		c0-0.73,0.16-1.65,0.47-2.77c-1.64,1.43-2.98,2.85-4,4.26c-1.03,1.41-2.81,4.27-5.33,8.59c-1.38-0.1-2.19-0.16-2.42-0.16
		c-0.1,0-0.9,0.05-2.38,0.16l6.41-10.39c3.2-5.21,4.8-8.44,4.8-9.69c0-0.73-0.3-1.09-0.9-1.09c-1.46,0-4.11,2.81-7.95,8.42
		c-0.23,0.37-0.44,0.55-0.63,0.55c-0.1-0.03-0.16-0.1-0.16-0.23c0.03-0.13,0.08-0.24,0.16-0.31l0.7-0.98
		c4.02-5.35,6.74-8.03,8.18-8.03c2.09,0,3.13,1.34,3.13,4.02c0,2.01-1.07,4.66-3.2,7.97c1.35-1.56,2.64-2.84,3.87-3.83
		c0.99-2.32,2.22-4.26,3.69-5.82c1.47-1.56,2.79-2.34,3.96-2.34c0.81,0,1.21,0.35,1.21,1.05c0,1.25-1.81,3.03-5.43,5.35
		c-0.57,0.37-1.43,0.9-2.58,1.6l-0.47,0.39c-0.37,1.2-0.55,2.19-0.55,2.97c0,2.19,0.82,3.28,2.47,3.28c2.04,0,4.25-1.69,6.65-5.06
		c0.52-0.57,0.85-0.86,0.98-0.86C640.56,233.43,640.64,233.51,640.64,233.67z"/>
	<path fill="#00A5E6" d="M653.96,233.67c-0.03,0.08-0.16,0.29-0.39,0.63l-1.68,2.31c-4.9,6.81-8.64,10.21-11.22,10.21
		c-1.23,0-2.25-0.44-3.07-1.31s-1.23-1.96-1.23-3.26c0-1.51,0.9-3.8,2.7-6.88l6.09-10.35c0.81,0.18,1.45,0.27,1.91,0.27
		c0.7,0,1.69-0.09,2.97-0.27l-8.87,14.57c-1.28,2.11-1.91,3.74-1.91,4.88c0,1.17,0.61,1.76,1.84,1.76c2.32,0,6.4-4.13,12.24-12.4
		c0.13-0.26,0.26-0.39,0.39-0.39C653.88,233.43,653.96,233.51,653.96,233.67z M653.39,217.52c0,0.91-0.38,1.76-1.15,2.56
		c-0.77,0.79-1.61,1.19-2.52,1.19c-1.17,0-1.76-0.59-1.76-1.76c0-0.86,0.4-1.69,1.21-2.48c0.81-0.79,1.65-1.19,2.54-1.19
		C652.83,215.84,653.39,216.4,653.39,217.52z"/>
</g>
</svg>
